<svg width="48" height="45" viewBox="0 0 48 45" fill="none" xmlns="http://www.w3.org/2000/svg">
<path d="M6.23589 44.3497C3.1383 44.3497 0.725749 43.5093 -0.986859 41.8138C-2.69947 40.1183 -3.56323 37.8036 -3.56323 34.8255C-3.56323 33.3364 -3.33985 32.0095 -2.90797 30.83C-2.4761 29.6506 -1.86551 28.6628 -1.09112 27.8224C-0.316719 26.9968 0.621514 26.3628 1.72354 25.9353C2.82557 25.5077 4.03181 25.2866 5.32744 25.2866C6.68263 25.2866 7.90381 25.4782 8.97605 25.8615C10.0483 26.2449 10.9716 26.7609 11.7162 27.4096C12.4608 28.0583 13.0416 28.8249 13.4437 29.6948C13.8458 30.5647 14.0394 31.4935 14.0394 32.4813C14.0394 32.8204 14.0245 33.1153 13.9798 33.3659C13.9351 33.6165 13.9054 33.8377 13.8458 34.0293C13.7713 34.2652 13.7118 34.4716 13.6671 34.6338C12.5949 34.855 11.478 35.0319 10.2866 35.1793C9.27391 35.3267 8.09739 35.4447 6.77199 35.5626C5.44658 35.6658 4.04672 35.7248 2.60218 35.7248C2.60218 37.2139 2.70642 38.4523 2.92981 39.4401C3.15319 40.4279 3.45101 41.2241 3.83821 41.8138C4.22541 42.4035 4.68706 42.8164 5.22318 43.067C5.7593 43.3176 6.34012 43.4503 6.96559 43.4503C7.69531 43.4503 8.38036 43.3176 9.02073 43.0522C9.66109 42.7869 10.2121 42.433 10.6887 41.9907C11.1652 41.5484 11.5375 41.0472 11.8205 40.4869C12.1034 39.9267 12.2375 39.3517 12.2375 38.7767H13.1459C13.1459 39.4991 12.9821 40.192 12.6544 40.8555C12.3268 41.5337 11.8651 42.1234 11.2546 42.6394C10.644 43.1554 9.92917 43.5683 9.08031 43.8779C8.21656 44.1875 7.26345 44.3497 6.23589 44.3497ZM2.60218 34.8255C3.42125 34.8255 4.15096 34.8107 4.77643 34.7665C5.40191 34.7223 5.93804 34.6928 6.36991 34.6486C6.87625 34.6043 7.30813 34.5454 7.68044 34.4716C7.72511 34.2357 7.78467 33.9704 7.85914 33.6755C7.90381 33.4101 7.94847 33.1153 7.97825 32.7909C8.00804 32.4665 8.03784 32.1274 8.03784 31.7736C8.03784 30.6973 7.94846 29.798 7.78465 29.0608C7.62083 28.3237 7.39746 27.7339 7.14429 27.2769C6.89112 26.8199 6.5933 26.4955 6.28056 26.3038C5.95293 26.1122 5.62527 26.009 5.31253 26.009C4.99979 26.009 4.67217 26.1269 4.34454 26.3481C4.01691 26.584 3.73398 27.0115 3.48081 27.6455C3.22765 28.2794 3.01916 29.1788 2.84046 30.3288C2.69154 31.4787 2.60218 32.9826 2.60218 34.8255Z" fill="#37393F"/>
<path d="M31.8654 43.45V28.8689L18.8496 18.6665V43.45H31.8654Z" fill="#6B77E5"/>
<path d="M47.9641 43.45V28.8689L35.1567 18.6665V43.45H47.9641Z" fill="#6B77E5"/>
</svg>
