<svg width="171" height="45" viewBox="0 0 171 45" fill="none" xmlns="http://www.w3.org/2000/svg">
<path d="M36.5734 44.5753H8.59466C3.99679 44.5753 0.270508 40.8863 0.270508 36.3344V8.63545C0.270508 4.08356 3.99679 0.394531 8.59466 0.394531H36.5734C41.1713 0.394531 44.8976 4.08356 44.8976 8.63545V36.3344C44.8976 40.8863 41.1713 44.5753 36.5734 44.5753Z" fill="#40DDB6"/>
<path d="M30.6237 22.8914C31.4195 23.8793 31.8237 25.0298 31.8237 26.3303C31.8237 28.2436 31.1795 29.7442 29.8911 30.8072C28.6027 31.8701 26.7585 32.4204 24.3585 32.4204H13.8744V10.0986H24.1059C26.4048 10.0986 28.1732 10.5988 29.4238 11.5867C30.6743 12.5746 31.3058 13.9877 31.3058 15.8135C31.3058 17.164 30.9395 18.277 30.2195 19.1774C29.4996 20.0777 28.5522 20.653 27.3775 20.9281C28.7543 21.2532 29.8279 21.9035 30.6237 22.8914ZM19.3186 19.2274H22.8933C24.788 19.2274 25.7353 18.4271 25.7353 16.8264C25.7353 15.2257 24.7627 14.4254 22.8301 14.4254H19.3186V19.2274ZM26.2406 25.58C26.2406 24.7797 25.9754 24.1544 25.4448 23.7042C24.9143 23.2541 24.1564 23.029 23.1838 23.029H19.3312V28.0435H23.2217C25.2301 28.031 26.2406 27.2182 26.2406 25.58Z" fill="white"/>
<path d="M70.7542 32.4204L65.8784 23.9919H64.6405V32.4204H59.1837V10.0986H68.4931C70.2742 10.0986 71.79 10.3987 73.0152 11.0115C74.2531 11.6242 75.1752 12.4621 75.7941 13.525C76.4131 14.588 76.7162 15.801 76.7162 17.1765C76.7162 18.8022 76.2615 20.1778 75.3647 21.3157C74.4552 22.4537 73.1542 23.229 71.4236 23.6542L76.7794 32.4328H70.7542V32.4204ZM64.6405 20.3028H68.0131C69.0994 20.3028 69.8952 20.0652 70.4005 19.59C70.9057 19.1148 71.171 18.4145 71.171 17.4892C71.171 16.6013 70.9057 15.9135 70.3878 15.4008C69.87 14.9006 69.0742 14.638 68.0131 14.638H64.6405V20.3028Z" fill="#37393F"/>
<path d="M101.398 28.3559H92.948L91.5459 32.4326H85.8112L94.0722 10.2734H100.35L108.611 32.4326H102.813L101.398 28.3559ZM99.9963 24.2417L97.1921 16.0383L94.3501 24.2417H99.9963Z" fill="#37393F"/>
<path d="M138.712 32.4204H133.255L124.135 18.7147V32.4204H118.678V10.0986H124.135L133.255 23.9293V10.0986H138.712V32.4204Z" fill="#37393F"/>
<path d="M169.305 27.0431C168.358 28.7313 166.994 30.0568 165.225 31.0072C163.444 31.9576 161.36 32.4328 158.96 32.4328H150.446V10.1111H158.96C161.385 10.1111 163.482 10.5738 165.238 11.4992C167.006 12.4245 168.358 13.7251 169.305 15.4133C170.253 17.1015 170.72 19.0273 170.72 21.2282C170.72 23.4041 170.24 25.3424 169.305 27.0431ZM163.432 25.9176C164.606 24.8047 165.2 23.229 165.2 21.2157C165.2 19.1898 164.606 17.6267 163.432 16.5137C162.257 15.4008 160.602 14.838 158.467 14.838H155.891V27.5933H158.467C160.602 27.5933 162.257 27.0431 163.432 25.9176Z" fill="#37393F"/>
</svg>
