<svg width="152" height="47" viewBox="0 0 152 47" fill="none" xmlns="http://www.w3.org/2000/svg">
<path d="M21.837 9.84904L22.954 9.61315C23.2369 9.61315 23.4752 9.67212 23.639 9.79007C23.8028 9.90802 23.8922 10.026 23.8922 10.1292C23.8922 10.2324 23.8624 10.3945 23.8177 10.5862C23.773 10.7779 23.3561 12.7535 22.5817 16.4835C21.8073 20.2136 21.2414 23.0001 20.8839 24.8283C22.6114 22.4988 24.6368 19.6386 26.9451 16.2329C29.2534 12.8272 30.6086 10.5715 30.9958 9.45097C31.1149 9.09713 31.2787 8.83175 31.4723 8.64009C31.6659 8.44843 31.8446 8.33048 31.9936 8.30099C32.1425 8.27151 32.3808 8.24202 32.6935 8.24202C33.0062 8.24202 33.3785 8.31574 33.8104 8.44843C34.2423 8.58112 34.4657 8.80227 34.4657 9.12662C34.4657 9.71635 33.5721 11.4413 31.8 14.272C30.0278 17.1028 27.9876 20.1104 25.6941 23.2949C23.4007 26.4795 21.4945 29.0006 19.9606 30.8583C19.6926 31.1826 19.35 31.3595 18.9628 31.3595C18.5757 31.3595 18.1587 31.2858 17.7268 31.1531C17.2949 31.0204 17.0715 30.7846 17.0715 30.4307C17.0715 29.325 18.0544 23.9879 20.0202 14.449C18.3374 16.6015 16.2971 19.6091 13.8995 23.4571C11.3976 27.4378 9.98283 29.9147 9.6552 30.8583C9.47649 31.4333 9.268 31.7724 9.02973 31.8608C8.86591 31.9345 8.6872 31.964 8.50849 31.964L7.30222 32.0967C7.06395 32.0967 6.85545 32.0377 6.64696 31.905C6.45336 31.7724 6.34912 31.6397 6.34912 31.4922C6.34912 31.0942 6.91503 29.8852 8.03195 27.8801C9.14887 25.875 10.4743 23.693 11.9784 21.3341C13.4825 18.9752 15.0462 16.6899 16.6843 14.4637C18.3225 12.2375 19.5883 10.7336 20.4819 9.98173C20.6606 9.81956 20.8691 9.74584 21.1073 9.74584L21.837 9.84904Z" fill="#37393F"/>
<path d="M39.7373 19.8452C40.5117 19.8452 40.8989 20.1105 40.8989 20.6266C40.8989 20.9067 40.8393 21.1131 40.7053 21.2458C40.5712 21.3785 40.2883 21.806 39.8564 22.5579C39.4245 23.2951 38.948 24.2387 38.4267 25.4034C37.9055 26.5534 37.563 27.5412 37.4141 28.352C37.3843 28.4553 37.3694 28.5879 37.3694 28.7796C37.3694 29.3399 37.5183 29.6052 37.8311 29.6052C38.1438 29.6052 38.5012 29.4578 38.9182 29.1777C39.3352 28.8828 39.7075 28.5879 40.0351 28.2488C40.3627 27.9245 40.6755 27.5854 40.9882 27.2463C41.301 26.9072 41.4797 26.7008 41.5392 26.6566C41.5988 26.6123 41.6882 26.5829 41.8073 26.5829C42.0009 26.5829 42.12 26.7303 42.1647 27.0252C42.2094 27.32 42.2243 27.6149 42.2243 27.9392C42.2243 28.2636 42.1945 28.47 42.1349 28.5879C41.8371 29.1629 41.1967 29.8559 40.184 30.6667C39.1863 31.4776 38.2629 31.8757 37.4439 31.8757C36.6248 31.8757 36.0142 31.6251 35.6419 31.1385C35.2696 30.652 35.0611 30.0918 35.0611 29.502C35.0611 28.8976 35.1654 28.3815 35.3739 27.9245C34.525 29.0155 33.557 29.9296 32.4699 30.6962C31.3678 31.4481 30.4892 31.8315 29.7893 31.8315C29.0893 31.8315 28.5383 31.6251 28.0916 31.2123C27.5256 30.6962 27.2576 29.9886 27.2576 29.0745C27.2576 28.1604 27.4661 27.2463 27.883 26.3175C28.3 25.4034 28.8362 24.5483 29.5063 23.7964C30.1765 23.0297 30.9211 22.3368 31.7252 21.7176C33.4081 20.4054 34.9717 19.7567 36.4014 19.7567C36.9524 19.7567 37.3992 19.8452 37.7417 20.0221C38.0842 20.199 38.3076 20.4349 38.397 20.7003C38.6353 20.3317 38.8437 20.1105 39.0225 20.0073C39.1565 19.8894 39.4096 19.8452 39.7373 19.8452ZM37.7119 21.5259C35.9695 21.5259 34.1676 22.4842 32.306 24.4008C31.6508 25.0938 31.0402 25.9047 30.4743 26.863C29.9084 27.8213 29.6403 28.47 29.6403 28.8238C29.6403 29.1777 29.7446 29.3546 29.9531 29.3546C30.236 29.3546 31.0253 28.7944 32.3358 27.6886C33.6463 26.5829 34.5101 25.7572 34.9271 25.2265C35.4036 24.6367 36.3269 23.3983 37.7119 21.5259Z" fill="#37393F"/>
<path d="M51.3237 11.8543L51.9492 12.0018C52.0385 12.0018 52.1279 12.046 52.1875 12.1344C52.2619 12.2229 52.2917 12.3114 52.2917 12.3851C52.2917 12.4588 52.1875 12.6799 51.9641 13.0338C51.7407 13.3876 51.5024 13.7857 51.2046 14.228C50.9067 14.6703 50.7578 14.9209 50.7429 14.9652C51.5322 14.9062 52.0981 14.8767 52.4258 14.8767C52.7534 14.8767 52.9768 14.9062 53.1108 14.9504C53.2299 14.9947 53.3788 15.1273 53.5278 15.3337C53.6916 15.5402 53.8256 15.7023 53.9597 15.8055C54.0937 15.9087 54.1533 16.0709 54.1533 16.2773C54.1533 16.4837 54.0192 16.6754 53.766 16.8081C53.5129 16.9555 53.2299 17.044 52.9321 17.0735C50.5642 17.3094 49.2686 17.4273 49.0303 17.442C48.2113 18.6952 47.0496 20.6413 45.5753 23.2804C44.101 25.9194 43.3117 27.5854 43.2223 28.2489C43.1777 28.5585 43.1628 28.7944 43.1628 28.9861C43.1628 29.3841 43.3713 29.5758 43.7883 29.5758C44.2052 29.5758 44.6669 29.4136 45.1732 29.104C45.6796 28.7797 46.1561 28.4406 46.5731 28.072C47.7198 27.0694 48.3304 26.5534 48.4049 26.5534C48.6729 26.5534 48.8069 27.0105 48.8069 27.9098C48.8069 28.3963 48.5836 28.8386 48.1219 29.2367C47.0943 30.1066 46.2306 30.77 45.5306 31.2123C44.8307 31.6546 44.1308 31.8757 43.4159 31.8757C43.267 31.8757 43.1181 31.861 42.9841 31.8315C42.165 31.6841 41.5693 31.3892 41.197 30.9469C40.8098 30.5046 40.6311 29.9149 40.6311 29.1777C40.6311 28.4406 40.8545 27.5265 41.3012 26.465C41.748 25.4034 42.299 24.2682 42.9692 23.074C44.0712 21.1131 45.1732 19.285 46.2604 17.5747L45.6796 17.6484C44.5031 17.7811 43.818 17.8401 43.6244 17.8401H43.4904C43.1926 17.8401 42.9096 17.7811 42.6415 17.6632C42.3735 17.5452 42.2246 17.3978 42.2246 17.2356C42.2246 17.0587 42.299 16.8965 42.448 16.7344C42.5969 16.5722 42.6862 16.4395 42.716 16.351C42.7905 16.1299 43.0585 15.8792 43.5202 15.6139C43.9818 15.3485 44.3244 15.2011 44.5627 15.1863C44.8009 15.1716 45.0243 15.1568 45.2477 15.1421C45.4711 15.1273 45.7094 15.1273 45.9774 15.1126C46.2455 15.0979 46.454 15.0979 46.6029 15.0831L47.973 15.0241C48.8218 13.7562 49.4175 12.9306 49.7303 12.5767C50.0579 12.2082 50.2366 12.0165 50.2813 11.987C50.3259 11.9575 50.4302 11.928 50.594 11.928L51.3237 11.8543Z" fill="#37393F"/>
<path d="M60.4821 26.5825C60.6757 26.5825 60.7948 26.73 60.8395 27.0248C60.8842 27.3197 60.8991 27.6146 60.8991 27.9389C60.8991 28.2633 60.8693 28.4697 60.8097 28.5876C60.5119 29.1479 59.8715 29.8408 58.8738 30.6517C57.876 31.4626 56.9229 31.8754 56.0293 31.8754C55.4783 31.8754 54.972 31.7132 54.4954 31.3888C54.0338 31.0645 53.7955 30.4895 53.7955 29.6786C53.7955 28.8677 54.0189 28.0569 54.4508 27.2755C51.9191 30.4158 49.9533 31.9786 48.5087 31.9786C47.9428 31.9786 47.4812 31.7722 47.1238 31.3741C46.7664 30.976 46.6025 30.5632 46.6025 30.1209C46.6025 29.6934 46.6621 29.2511 46.7812 28.794C46.9004 28.337 47.0344 27.9242 47.1685 27.5556C47.3025 27.187 47.511 26.7447 47.779 26.2139C48.0471 25.6832 48.2556 25.2999 48.3747 25.0492C48.4939 24.7986 48.7172 24.4447 49.0151 23.9582C49.3129 23.4717 49.6852 22.8082 50.1618 21.9826C50.6383 21.157 51.0255 20.5378 51.3383 20.1397C51.651 19.7416 51.9488 19.5352 52.2467 19.5352C52.5445 19.5352 52.7977 19.6532 53.0211 19.8891C53.2445 20.125 53.3636 20.3314 53.3636 20.4788C53.3636 20.6262 53.0211 21.3044 52.3361 22.5134C50.3256 26.1255 49.3129 28.219 49.3129 28.8235C49.3129 28.9709 49.3725 29.0447 49.4767 29.0447C49.9682 29.0447 51.1894 27.9979 53.1253 25.9043C55.0613 23.8108 56.1931 22.4691 56.5059 21.8794C56.8186 21.2897 57.1016 20.7884 57.3994 20.3903C57.6824 19.9923 57.9058 19.7416 58.0547 19.6532C58.4866 19.373 59.0525 19.2256 59.7524 19.1961C59.8715 19.1961 59.946 19.1961 60.0056 19.2109C60.0651 19.2256 60.1396 19.3141 60.214 19.4615C60.2885 19.6089 60.3332 19.7416 60.3332 19.8448C60.2438 20.1249 59.8417 20.8769 59.112 22.1006C58.3972 23.3243 57.9951 24.0172 57.9207 24.1646C56.7144 26.6268 56.1187 28.2338 56.1187 28.9709C56.1187 29.3985 56.2825 29.6049 56.6101 29.6049C57.2058 29.5312 57.9206 29.0594 58.7546 28.2043C59.0673 27.8947 59.3652 27.5703 59.663 27.246C59.9609 26.9216 60.1545 26.73 60.214 26.6857C60.2885 26.612 60.3779 26.5825 60.4821 26.5825Z" fill="#37393F"/>
<path d="M64.9051 23.0887C67.3028 20.3906 69.3579 19.0342 71.0407 19.0342C71.4577 19.0342 71.8002 19.1522 72.0683 19.4028C72.3364 19.6535 72.4704 19.9631 72.4704 20.3611C72.4704 20.7592 72.1874 21.4079 71.6215 22.3367C71.0556 23.2508 70.5344 24.0322 70.0578 24.6662C69.8047 24.9905 69.5217 25.1527 69.1941 25.1527C68.8813 25.1527 68.6282 25.0348 68.4495 24.7989C68.2708 24.563 68.1814 24.2976 68.1814 23.988C68.1814 23.2951 68.5537 22.4989 69.3132 21.6291L69.2834 21.5996C68.9409 21.6291 68.1218 22.2925 66.7815 23.5604C65.4561 24.8431 64.3243 25.9931 63.3861 26.9956C62.4628 28.0129 61.4501 29.2366 60.3481 30.6962C60.0354 31.1238 59.7673 31.3449 59.5439 31.3449C59.3205 31.3449 59.0376 31.2712 58.6802 31.1385C58.3228 31.0058 58.0994 30.9026 58.0249 30.8436C57.9504 30.7847 57.9058 30.6815 57.9058 30.534C57.9058 30.4013 57.9504 30.2244 58.0249 30.0475C58.0994 29.8558 58.2632 29.5905 58.4717 29.2514C58.6802 28.9123 59.0227 28.352 59.4695 27.5854C59.9162 26.8187 60.6013 25.654 61.5395 24.1059C62.4777 22.5579 63.0287 21.6143 63.2223 21.29C63.6095 20.6265 63.9222 20.14 64.1754 19.8451C64.6371 19.2701 65.4115 18.99 66.4986 18.99C66.7369 18.99 66.8709 19.1374 66.8709 19.4471C66.8709 19.9188 66.4241 20.8182 65.5455 22.1156L64.9051 23.0887Z" fill="#37393F"/>
<path d="M81.3315 20.0223C81.3315 20.6858 81.0635 21.2755 80.5125 21.7768C79.9615 22.278 79.3509 22.5287 78.6509 22.5287C78.4276 22.5287 78.2786 22.4697 78.2042 22.3665C78.1297 22.2633 78.0999 22.1159 78.0999 21.9537C78.0999 21.7915 78.1148 21.6146 78.1595 21.4524C77.7872 21.5704 77.3851 21.762 76.9383 22.0127C76.4915 22.2633 75.9405 22.6319 75.2853 23.1332C74.63 23.6344 74.3024 23.9883 74.3024 24.2389C74.3024 24.3126 74.4215 24.3569 74.6598 24.3569C74.8981 24.3569 75.2704 24.2684 75.7618 24.1062C76.2533 23.944 76.6107 23.8556 76.8043 23.8556C76.9979 23.8556 77.1319 23.8703 77.1915 23.8851C77.3255 23.9588 77.4596 24.1062 77.6234 24.3421C77.7723 24.578 77.8467 24.7697 77.8467 24.9024C77.8467 25.035 77.7127 25.212 77.4447 25.4331C77.1766 25.6543 76.8788 25.8164 76.5511 25.9344C76.2086 26.0523 75.9852 26.1408 75.881 26.1998C73.7365 27.394 72.6643 28.2049 72.6643 28.6472C72.6643 29.4286 73.3344 29.8266 74.6896 29.8266C75.5533 29.8266 76.432 29.5612 77.2957 29.0157C78.0403 28.5587 78.7105 28.0869 79.3062 27.6004C79.9019 27.1286 80.2742 26.8337 80.438 26.7158C80.6018 26.5978 80.721 26.5536 80.7954 26.5536C81.0635 26.5536 81.1975 26.8485 81.1975 27.4382C81.1975 28.0279 81.1677 28.4113 81.0933 28.5882C81.0188 28.7798 80.8252 29.001 80.4827 29.2811C78.3084 31.0356 76.2384 31.9202 74.3024 31.9202C73.2599 31.9202 72.4409 31.7727 71.8154 31.4926C70.6687 30.9766 70.1028 30.1952 70.1028 29.1337C70.1028 27.7478 71.0708 26.6863 73.0217 25.9786C72.6345 25.8017 72.3813 25.5953 72.2771 25.3152C72.1579 25.0498 72.1132 24.6222 72.1132 24.0325C72.1132 23.4428 72.3962 22.8236 72.9472 22.1601C73.4982 21.4967 74.1833 20.9511 74.9874 20.5383C76.7745 19.58 78.3829 19.1082 79.7827 19.1082C80.1253 19.1082 80.4529 19.1819 80.8103 19.3441C81.1677 19.5063 81.3315 19.7275 81.3315 20.0223Z" fill="#37393F"/>
<path d="M116.09 9.7606H116.283C116.343 9.7606 116.388 9.7606 116.402 9.77535C116.417 9.79009 116.432 9.79009 116.462 9.80483C116.492 9.80483 116.507 9.81958 116.536 9.84906C116.581 9.89329 116.656 9.93752 116.745 9.98175C116.864 10.0702 116.924 10.1734 116.924 10.2914C116.924 10.4093 116.805 10.6599 116.566 11.0433C116.328 11.4266 115.717 12.3554 114.72 13.8592C112.441 17.3092 110.401 20.5232 108.599 23.4719C105.486 28.6026 103.908 31.1826 103.878 31.2121C103.848 31.2416 103.833 31.2711 103.819 31.3006C103.804 31.3596 103.774 31.389 103.699 31.389L103.491 31.3448L103.074 31.448L102.836 31.4038L102.582 31.448H102.493L101.644 31.566C101.138 31.566 100.885 31.389 100.885 31.05C100.885 30.9025 100.929 30.7256 101.019 30.5192C101.331 29.782 102.925 27.1135 105.784 22.4841C103.908 22.5283 102.046 22.5578 100.215 22.5578L96.9383 22.5431C96.4022 23.3982 95.6576 24.6071 94.7193 26.1847C92.694 29.6199 91.6218 31.3448 91.4877 31.3743C91.3537 31.4038 91.2495 31.4333 91.1601 31.4333C91.0707 31.4333 90.9963 31.389 90.9367 31.2858C90.8623 31.1974 90.8176 31.1384 90.7878 31.1384C90.758 31.1384 90.7133 31.1532 90.624 31.1974C90.5495 31.2416 90.4304 31.2564 90.2666 31.2564L89.9092 31.2416L89.7751 31.1532C89.7602 31.1532 89.7453 31.1679 89.7305 31.1974C89.7156 31.2269 89.6709 31.2416 89.6113 31.2416C89.1794 31.2416 88.9561 31.0647 88.9561 30.6961C88.9561 30.4602 89.0454 30.1359 89.2092 29.7378C89.3879 29.3397 89.6113 28.9122 89.8943 28.4551C90.1772 27.9981 90.892 26.8923 92.0685 25.1674C93.2301 23.4424 93.8109 22.5725 93.8109 22.5578C93.6173 22.5431 93.3939 22.5431 93.1408 22.5283C92.6195 22.5283 92.2621 22.5136 92.0387 22.4693C91.4579 22.3661 91.0559 21.8944 90.8474 21.054C90.7282 20.6412 90.6836 20.3758 90.6984 20.2431C90.6984 19.9777 90.8176 19.8303 91.0559 19.8303L91.4579 19.9335C91.6664 19.9482 92.143 19.963 92.9174 20.0072C93.6918 20.0514 94.2428 20.0662 94.5853 20.0662L95.4491 20.0367C96.7745 17.9874 98.3531 15.6579 100.2 13.0631C98.8594 14.1541 97.3702 14.6996 95.732 14.6996C94.9576 14.6996 94.2875 14.5227 93.7365 14.1541C93.1705 13.7855 92.9025 13.3137 92.9025 12.7535C92.9025 12.1933 93.111 11.751 93.5429 11.4119C93.9747 11.0875 94.3768 10.9253 94.764 10.9253C95.1512 10.9253 95.3448 10.9843 95.3448 11.1022C95.3448 11.1465 95.2852 11.1907 95.181 11.2349C95.0768 11.2939 95.0172 11.3381 95.0172 11.3824C95.0172 11.5445 95.1959 11.692 95.5533 11.8099C95.9107 11.9279 96.3128 12.0016 96.7596 12.0016C97.2063 12.0016 97.7425 11.8689 98.3977 11.6183C99.053 11.3676 99.7231 11.0285 100.423 10.6305C101.406 10.0702 102.18 9.59843 102.746 9.22984C103.074 9.06767 103.372 8.99395 103.67 8.99395C103.967 8.99395 104.161 9.02344 104.295 9.09715C104.429 9.15613 104.518 9.22984 104.578 9.28882C104.638 9.34779 104.712 9.43625 104.772 9.53945C104.846 9.64266 104.906 9.73112 104.98 9.77535C105.04 9.83432 105.084 9.89329 105.084 9.96701C105.084 10.0407 105.04 10.1439 104.965 10.3061C104.891 10.4535 104.504 11.0728 103.804 12.149C103.104 13.2253 102.195 14.5964 101.093 16.2624C99.9912 17.9284 99.187 19.1521 98.6807 19.9482C101.406 19.9482 104.34 19.904 107.497 19.8008C111.339 13.8003 113.364 10.6599 113.573 10.3651C113.781 10.0702 113.975 9.87855 114.154 9.79009C114.332 9.70163 114.541 9.6574 114.794 9.6574L116.09 9.7606Z" fill="#37393F"/>
<path d="M121.064 19.8157C121.377 19.8157 121.69 19.9484 122.002 20.2285C122.33 20.5087 122.479 20.9215 122.479 21.4817C122.479 22.042 122.285 22.7644 121.883 23.6637C121.481 24.5483 120.945 25.4624 120.245 26.3912C119.56 27.3053 118.786 28.1752 117.967 28.9861C117.133 29.7969 116.239 30.4604 115.286 30.9764C114.318 31.4924 113.454 31.7578 112.665 31.7578C111.876 31.7578 111.25 31.5072 110.774 31.0206C110.297 30.5341 110.059 29.8559 110.059 28.9861C110.059 28.1162 110.282 27.1432 110.714 26.0964C111.146 25.0349 111.697 24.106 112.382 23.2951C113.067 22.4843 113.797 21.7618 114.601 21.1131C116.254 19.7862 117.713 19.1375 118.964 19.1375C119.53 19.1375 119.947 19.2702 120.23 19.5503C120.334 19.6388 120.379 19.7273 120.379 19.7862V19.8747C120.543 19.8157 120.766 19.8157 121.064 19.8157ZM119.53 21.8208H119.426C119.069 21.8208 118.89 21.5702 118.89 21.0542C118.145 21.2901 117.371 21.7176 116.552 22.3221C115.733 22.9266 115.003 23.649 114.363 24.4746C113.052 26.1259 112.397 27.5265 112.382 28.6617C112.382 29.222 112.591 29.5021 113.007 29.5021C113.424 29.5021 114.05 29.222 114.869 28.6912C115.688 28.1604 116.507 27.379 117.326 26.3618C118.13 25.3592 118.741 24.4746 119.143 23.7374C119.545 23.0003 119.754 22.499 119.754 22.2189C119.739 21.9535 119.664 21.8208 119.53 21.8208Z" fill="#37393F"/>
<path d="M122.151 31.4185L121.406 31.389H121.138C121.034 31.3595 120.93 31.3005 120.811 31.2121C120.691 31.1236 120.602 31.0499 120.542 31.0204C120.483 30.9909 120.453 30.9025 120.453 30.7993C120.453 30.6961 120.498 30.5044 120.572 30.2538C122.553 25.934 124.474 22.4693 126.336 19.8892C126.544 19.6091 126.872 19.3879 127.318 19.2405C127.765 19.0931 128.212 19.0194 128.644 19.0194C128.897 19.0194 129.031 19.211 129.031 19.6091C129.031 19.727 128.986 19.8745 128.912 20.0514C128.837 20.2431 128.629 20.5379 128.301 20.9655C127.974 21.393 127.587 21.8796 127.14 22.4103C126.693 22.9411 126.44 23.2654 126.38 23.3539C127.78 21.9238 129.031 20.8623 130.163 20.1546C131.295 19.4617 132.099 19.1078 132.605 19.1078C133.112 19.1078 133.499 19.2552 133.767 19.5354C134.035 19.8155 134.169 20.1251 134.169 20.4495C134.169 20.7738 134.139 21.0539 134.094 21.2603C134.05 21.4815 133.96 21.7026 133.841 21.9385C133.722 22.1744 133.618 22.3808 133.529 22.543C133.439 22.7052 133.29 22.9263 133.097 23.1917C132.888 23.4571 132.754 23.6488 132.68 23.752C132.605 23.8552 132.441 24.0468 132.203 24.3269C131.965 24.6071 131.831 24.7692 131.816 24.7987C132.099 24.5186 132.501 24.1058 133.007 23.5456C133.514 22.9853 133.945 22.5283 134.303 22.1597C134.66 21.7911 135.092 21.3635 135.628 20.8918C136.164 20.42 136.656 20.0366 137.103 19.7565C138.205 19.0783 139.322 18.7245 140.453 18.7245C140.841 18.7245 141.168 18.8424 141.436 19.0931C141.704 19.3437 141.838 19.6238 141.838 19.9629C141.838 20.302 141.421 21.1129 140.602 22.3808C139.783 23.6488 138.949 24.9314 138.13 26.2141C137.311 27.4968 136.894 28.3076 136.894 28.6467C136.894 29.1038 136.984 29.3839 137.147 29.4724C137.326 29.5608 137.535 29.5903 137.773 29.5756C138.011 29.5608 138.368 29.3987 138.8 29.1038C139.247 28.8089 139.634 28.514 139.977 28.1897C140.543 27.6884 141.049 27.2019 141.541 26.7301C141.645 26.6416 141.749 26.5974 141.883 26.5974C142.077 26.5974 142.196 26.7449 142.24 27.0397C142.285 27.3346 142.3 27.6294 142.3 27.9538C142.3 28.2782 142.27 28.4846 142.211 28.6025C141.913 29.1628 141.258 29.8557 140.26 30.6813C139.247 31.4922 138.279 31.905 137.356 31.905C137.237 31.905 137.162 31.905 137.118 31.8903C136.075 31.7871 135.345 31.5069 134.943 31.0352C134.541 30.5634 134.348 30.0031 134.348 29.3692C134.348 28.7352 134.571 27.9391 135.018 27.025C135.465 26.1109 135.941 25.2705 136.477 24.5334C137.013 23.7962 137.49 23.118 137.937 22.5135C138.383 21.909 138.607 21.5847 138.607 21.5405C138.607 21.4962 138.562 21.4667 138.488 21.4667C138.175 21.4667 137.475 21.968 136.373 22.9853C134.511 24.7103 132.903 26.3763 131.548 27.9685C131.19 28.3961 130.342 29.4576 129.016 31.1826C128.867 31.389 128.614 31.4922 128.286 31.4922C127.959 31.4922 127.616 31.4332 127.259 31.3005C126.901 31.1678 126.723 31.0057 126.723 30.814C126.723 30.7108 127.527 29.2954 129.15 26.5679C130.773 23.8404 131.578 22.3513 131.578 22.1154C131.578 21.8648 131.429 21.7469 131.131 21.7469C130.833 21.7469 130.208 22.1892 129.269 23.0738C126.693 25.5064 124.697 27.9391 123.283 30.3422C123.193 30.4897 123.015 30.7108 122.747 31.0057C122.478 31.3005 122.24 31.4185 122.151 31.4185Z" fill="#37393F"/>
<path d="M151.683 20.0223C151.683 20.6858 151.415 21.2755 150.864 21.7768C150.313 22.278 149.702 22.5287 149.002 22.5287C148.779 22.5287 148.63 22.4697 148.555 22.3665C148.481 22.2633 148.451 22.1159 148.451 21.9537C148.451 21.7915 148.466 21.6146 148.511 21.4524C148.138 21.5704 147.736 21.762 147.289 22.0127C146.843 22.2633 146.292 22.6319 145.636 23.1332C144.981 23.6344 144.653 23.9883 144.653 24.2389C144.653 24.3126 144.773 24.3569 145.011 24.3569C145.249 24.3569 145.621 24.2684 146.113 24.1062C146.604 23.944 146.962 23.8556 147.155 23.8556C147.349 23.8556 147.483 23.8703 147.543 23.8851C147.677 23.9588 147.811 24.1062 147.974 24.3421C148.123 24.578 148.198 24.7697 148.198 24.9024C148.198 25.035 148.064 25.212 147.796 25.4331C147.528 25.6543 147.23 25.8164 146.902 25.9344C146.56 26.0523 146.336 26.1408 146.232 26.1998C144.088 27.394 143.015 28.2049 143.015 28.6472C143.015 29.4286 143.685 29.8266 145.041 29.8266C145.904 29.8266 146.783 29.5612 147.647 29.0157C148.391 28.5587 149.062 28.0869 149.657 27.6004C150.253 27.1286 150.625 26.8337 150.789 26.7158C150.953 26.5978 151.072 26.5536 151.146 26.5536C151.415 26.5536 151.549 26.8485 151.549 27.4382C151.549 28.0279 151.519 28.4113 151.444 28.5882C151.37 28.7798 151.176 29.001 150.834 29.2811C148.659 31.0356 146.589 31.9202 144.653 31.9202C143.611 31.9202 142.792 31.7727 142.166 31.4926C141.02 30.9766 140.454 30.1952 140.454 29.1337C140.454 27.7478 141.422 26.6863 143.373 25.9786C142.986 25.8017 142.732 25.5953 142.628 25.3152C142.509 25.0498 142.464 24.6222 142.464 24.0325C142.464 23.4428 142.747 22.8236 143.298 22.1601C143.849 21.4967 144.534 20.9511 145.339 20.5383C147.126 19.58 148.734 19.1082 150.134 19.1082C150.476 19.1082 150.804 19.1819 151.161 19.3441C151.519 19.5063 151.683 19.7275 151.683 20.0223Z" fill="#37393F"/>
<path d="M0.719971 35.5021C4.63663 37.1239 8.62774 38.3771 12.6933 39.3354C16.7291 40.3379 20.8394 41.0456 24.9497 41.4879C27.0048 41.768 29.0748 41.7975 31.115 41.9892C33.1851 42.0039 35.2402 42.1661 37.2953 42.0482L40.378 41.9745C41.4056 41.9597 42.4331 41.827 43.4607 41.7681C44.4883 41.6796 45.5158 41.6354 46.5285 41.5027L49.5814 41.0751C53.6768 40.6328 57.653 39.6892 61.6143 38.554C65.6204 37.463 69.403 36.0182 73.409 34.5143C77.5044 33.0253 81.9422 32.0522 86.4397 32.524C88.6586 32.8041 90.8925 33.5118 92.7093 34.8092C94.5411 36.0919 95.8516 37.92 96.6856 39.8367C95.4346 38.1265 93.8709 36.7258 92.069 35.856C90.267 34.9861 88.2863 34.6323 86.3206 34.6913C82.3443 34.7502 78.4277 36.0624 74.7493 37.7136C71.0113 39.5418 66.9606 41.1931 62.8802 42.5642C58.7699 43.8763 54.5256 44.9231 50.2218 45.4539C41.6587 46.5744 32.8872 46.5891 24.4284 44.8936C20.1841 44.127 16.0441 42.9328 12.0381 41.4142C8.06183 39.8367 4.17497 37.9938 0.719971 35.5021Z" fill="#40DDB6"/>
<path d="M143.134 10.9549C139.813 9.55429 136.433 8.46329 133.008 7.60817C129.597 6.70883 126.142 6.07487 122.672 5.63257C120.945 5.36719 119.188 5.30822 117.46 5.10181C115.718 5.05758 113.99 4.88066 112.248 4.95438C111.384 4.96912 110.505 4.96912 109.642 4.95438C108.778 4.95438 107.899 5.04284 107.036 5.07233C106.172 5.1313 105.293 5.14604 104.429 5.2345L101.838 5.54411C98.3683 5.82423 95.0027 6.53191 91.637 7.40177C88.2267 8.21265 84.9951 9.36263 81.555 10.5126C78.0255 11.6773 74.1982 12.385 70.356 11.8543C68.4647 11.5446 66.5585 10.8812 65.0544 9.70173C63.5205 8.537 62.478 6.94473 61.8376 5.27873C62.895 6.73832 64.2055 7.93253 65.7096 8.66969C67.2138 9.40686 68.8668 9.71647 70.5198 9.70173C73.8557 9.70173 77.1618 8.64021 80.2891 7.31331C83.4761 5.80949 86.9757 4.48259 90.4605 3.39159C93.9751 2.34481 97.6386 1.54867 101.302 1.16535C108.614 0.398694 116.09 0.575614 123.253 2.25635C126.842 3.00826 130.342 4.15824 133.693 5.5736C137.058 7.01844 140.305 8.69918 143.134 10.9549Z" fill="#6B77E5"/>
</svg>
