<svg width="105" height="99" viewBox="0 0 105 99" fill="none" xmlns="http://www.w3.org/2000/svg">
<path d="M89.3356 83.0231C89.505 83.0142 89.6654 82.9072 89.7278 82.7468C91.8582 77.55 95.0493 62.04 95.0672 57.9486C95.1474 40.2814 93.427 35.7621 87.7489 20.8048L86.7773 18.2465C86.6882 18.0148 86.4297 17.89 86.1979 17.9791C85.9662 18.0682 85.8414 18.3267 85.9305 18.5585L86.9021 21.1168C92.5356 35.9582 94.2382 40.4419 94.158 57.9397C94.1401 61.9687 90.9846 77.2648 88.881 82.3991C88.7829 82.6309 88.8988 82.8983 89.1306 82.9874C89.2019 83.0142 89.2643 83.0231 89.3356 83.0231Z" fill="#40DDB6"/>
<path d="M94.1491 62.8956C94.1937 62.8956 94.2383 62.8867 94.2829 62.8689C94.5146 62.7798 94.6394 62.5213 94.5503 62.2895C93.5876 59.6689 91.2522 57.2889 89.7012 55.7022L89.3713 55.3635C88.5156 54.4899 86.5189 52.1456 85.9395 51.0849C85.6721 50.5946 85.4136 50.14 85.164 49.7032C83.4526 46.6814 82.4275 44.8541 82.0085 39.8624C81.9907 39.6128 81.7768 39.4167 81.5183 39.4523C81.2687 39.4702 81.0815 39.693 81.1083 39.9426C81.545 45.1304 82.6682 47.1271 84.3796 50.1489C84.6203 50.5768 84.8788 51.0314 85.1462 51.5216C85.7791 52.6626 87.8203 55.0693 88.7296 55.9964L89.0594 56.3351C90.646 57.9485 92.8121 60.1591 93.7035 62.5926C93.7748 62.7887 93.962 62.9046 94.1491 62.8956Z" fill="#40DDB6"/>
<path d="M94.4968 45.4693C94.6483 45.4604 94.7999 45.3713 94.8712 45.2197C96.2082 42.5902 97.5364 39.9071 98.8022 37.2508C100.175 34.3627 101.458 31.2964 100.71 28.2568C100.647 28.0161 100.407 27.8646 100.166 27.927C99.9253 27.9894 99.7738 28.23 99.8362 28.4707C100.514 31.2251 99.2924 34.122 97.991 36.8586C96.7252 39.506 95.406 42.1801 94.0689 44.8008C93.9531 45.0236 94.0422 45.3 94.265 45.4069C94.3453 45.4604 94.4166 45.4693 94.4968 45.4693Z" fill="#40DDB6"/>
<path d="M88.1787 17.6287C90.3192 15.2171 90.0993 11.5269 87.6877 9.38648C85.2761 7.24603 81.5859 7.46586 79.4454 9.87749C77.305 12.2891 77.5248 15.9793 79.9365 18.1198C82.3481 20.2602 86.0383 20.0404 88.1787 17.6287Z" fill="#40DDB6"/>
<path d="M94.8177 24.9141C94.9603 27.3654 97.064 29.2462 99.5153 29.1036C101.967 28.9609 103.847 26.8573 103.705 24.406C103.562 21.9547 101.458 20.0739 99.0072 20.2165C96.547 20.3591 94.6751 22.4628 94.8177 24.9141Z" fill="#40DDB6"/>
<path d="M76.8919 36.4669C77.0345 38.9182 79.1382 40.799 81.5984 40.6564C84.0497 40.5138 85.9305 38.4101 85.7879 35.9588C85.6452 33.5075 83.5416 31.6267 81.0903 31.7693C78.6301 31.903 76.7493 34.0067 76.8919 36.4669Z" fill="#40DDB6"/>
<path d="M82.3295 33.0077C82.5434 32.9988 82.7217 32.8383 82.7484 32.6244C82.8732 31.7954 83.3011 30.1285 83.6576 29.3263C83.7557 29.0945 83.6576 28.8271 83.4259 28.7291C83.1941 28.631 82.9267 28.7291 82.8286 28.9608C82.4364 29.8522 81.9818 31.5904 81.857 32.4996C81.8214 32.7492 81.9907 32.9809 82.2403 33.0166C82.2671 33.0077 82.3027 33.0166 82.3295 33.0077Z" fill="#40DDB6"/>
<path d="M80.003 33.3732C80.1457 33.3643 80.2883 33.2841 80.3685 33.1593C80.4933 32.9454 80.4309 32.669 80.217 32.5353C80.1902 32.5086 79.9941 32.2857 79.8426 31.0378C79.8069 30.6991 79.8426 30.3871 79.8872 30.0573C79.9228 29.7631 79.9674 29.469 79.9585 29.1303C79.9496 28.8807 79.7445 28.6846 79.495 28.6846C79.2721 28.6846 79.0493 28.8985 79.0493 29.1481C79.0582 29.4333 79.0225 29.6918 78.9869 29.9414C78.9423 30.3158 78.8888 30.6991 78.9423 31.1448C79.0938 32.4105 79.3345 33.0612 79.7445 33.3108C79.8248 33.3554 79.9139 33.3732 80.003 33.3732Z" fill="#40DDB6"/>
<path d="M79.1383 34.1583C79.2096 34.1583 79.2898 34.1316 79.3522 34.087C79.5661 33.9533 79.6285 33.677 79.4948 33.4631C78.4341 31.7694 77.5516 30.7176 76.8029 30.2363C76.5889 30.1026 76.3126 30.165 76.1789 30.3789C76.0452 30.5928 76.1076 30.8691 76.3215 31.0029C76.9455 31.404 77.7566 32.3934 78.7282 33.9444C78.8174 34.087 78.9778 34.1673 79.1383 34.1583Z" fill="#40DDB6"/>
<path d="M100.576 21.8389C100.772 21.83 100.933 21.6784 100.968 21.4823C101.075 20.7157 101.476 19.1826 101.806 18.4338C101.895 18.2199 101.806 17.9792 101.592 17.8811C101.378 17.792 101.138 17.8811 101.04 18.0951C100.683 18.9151 100.264 20.5196 100.139 21.3575C100.104 21.5893 100.264 21.7943 100.496 21.83C100.514 21.8389 100.54 21.8389 100.576 21.8389Z" fill="#40DDB6"/>
<path d="M99.3369 22.1151C99.4706 22.1062 99.5954 22.0349 99.6668 21.9101C99.7826 21.714 99.7202 21.4555 99.5241 21.3396C99.4974 21.3129 99.3191 21.1078 99.1765 19.958C99.1319 19.5658 99.1676 19.2181 99.2121 18.7368C99.2389 18.505 99.2567 18.2465 99.2835 17.9345C99.3013 17.7028 99.123 17.5067 98.8912 17.4888C98.6595 17.4799 98.4634 17.6493 98.4456 17.8811C98.4277 18.1752 98.401 18.4337 98.3742 18.6566C98.3208 19.1646 98.2851 19.5747 98.3386 20.056C98.4723 21.2237 98.6951 21.821 99.0784 22.0527C99.1676 22.1062 99.2567 22.124 99.3369 22.1151Z" fill="#40DDB6"/>
<path d="M98.5347 22.8373C98.606 22.8373 98.6684 22.8106 98.7308 22.7749C98.9269 22.6501 98.9893 22.3916 98.8645 22.1955C97.8929 20.6356 97.0818 19.664 96.3865 19.2272C96.1904 19.1024 95.9319 19.1648 95.8071 19.352C95.6823 19.5481 95.7447 19.8066 95.9319 19.9314C96.5113 20.2969 97.2601 21.215 98.1514 22.6412C98.2406 22.7749 98.3832 22.8462 98.5347 22.8373Z" fill="#40DDB6"/>
<path d="M81.0993 9.53772C81.1796 9.5288 81.2509 9.51097 81.3222 9.46641C81.5272 9.32379 81.5896 9.04746 81.447 8.84244C80.9745 8.13825 80.1901 6.6229 79.9138 5.78501C79.8336 5.54433 79.5751 5.41954 79.3433 5.49976C79.1026 5.57999 78.9778 5.83849 79.0581 6.07025C79.3611 6.98837 80.1901 8.58394 80.6982 9.35053C80.7873 9.47532 80.9389 9.54663 81.0993 9.53772Z" fill="#40DDB6"/>
<path d="M80.413 10.4115C80.4486 10.4115 80.4843 10.4026 80.5199 10.3937C80.7695 10.3491 80.93 10.1084 80.8765 9.86774C80.8319 9.61815 80.5823 9.45771 80.3506 9.51119C80.306 9.51119 80.0119 9.47553 79.067 8.64655C78.8085 8.4237 78.6302 8.1652 78.443 7.88888C78.2737 7.6482 78.1043 7.39862 77.8725 7.14903C77.7032 6.96184 77.4179 6.95293 77.2307 7.1312C77.0436 7.30057 77.0346 7.58581 77.2129 7.773C77.409 7.97801 77.5516 8.19195 77.7032 8.40588C77.9171 8.71786 78.1399 9.03876 78.4787 9.33291C79.3611 10.0995 79.9584 10.4382 80.413 10.4115Z" fill="#40DDB6"/>
<path d="M80.3416 11.5697C80.5288 11.5608 80.6982 11.436 80.7516 11.2399C80.8229 10.9992 80.6803 10.7496 80.4397 10.6783C78.5232 10.1346 77.1594 9.93847 76.2858 10.0811C76.0362 10.1257 75.8758 10.3574 75.9114 10.607C75.956 10.8566 76.1878 11.026 76.4374 10.9814C77.1683 10.8566 78.434 11.0527 80.199 11.5519C80.2435 11.5608 80.2881 11.5697 80.3416 11.5697Z" fill="#40DDB6"/>
<path d="M92.1168 70.7934C91.065 70.7577 89.1753 70.0981 88.4889 69.1176C88.3463 68.9126 87.6243 67.8429 87.4727 67.0407C87.3034 66.1136 87.3034 65.3381 87.4727 64.2595C87.7134 62.762 87.7669 62.6996 88.0254 62.6016C88.1858 62.5392 88.3819 62.4679 89.7814 63.4395C91.4483 64.5894 93.0171 67.3972 92.7675 70.0981C92.7586 70.2318 92.6873 70.3477 92.5892 70.419C92.5536 70.6329 92.3842 70.7934 92.1703 70.8023C92.1436 70.7934 92.1346 70.7934 92.1168 70.7934ZM88.3641 64.4022C88.2037 65.3827 88.2037 66.0512 88.3552 66.8713C88.4354 67.3259 88.8544 68.0657 89.2287 68.6006C89.6388 69.18 90.9491 69.7415 91.8672 69.8663C92.0188 67.5755 90.6549 65.1509 89.2644 64.1882C89.1663 64.1169 88.792 63.8852 88.4889 63.698C88.4443 63.9476 88.3908 64.2417 88.3641 64.4022Z" fill="#40DDB6"/>
<path d="M82.8999 54.2227C82.6771 54.2049 81.5361 54.0712 80.8943 53.7057C80.1723 53.2868 79.6375 52.8322 79.0135 52.0923C78.1667 51.0851 78.1221 51.0137 78.2113 50.7552C78.2647 50.6126 78.3271 50.4433 79.7979 50.0511C81.5539 49.5875 84.3618 50.158 86.0376 51.8962C86.1178 51.9853 86.1535 52.0923 86.1535 52.1993C86.2872 52.3508 86.2872 52.5826 86.1445 52.7341C85.5651 53.367 84.237 54.1692 83.1941 54.2227C83.096 54.2316 82.998 54.2316 82.8999 54.2227ZM80.0119 50.8355C79.9049 50.8622 79.5305 50.9781 79.2274 51.0761C79.3433 51.2188 79.4859 51.3881 79.6375 51.5664C80.208 52.2438 80.6626 52.6271 81.3133 53.0015C81.6698 53.2065 82.4097 53.3581 82.9891 53.4116C83.6219 53.4829 84.754 52.9124 85.378 52.3597C83.9072 50.9335 81.4737 50.4522 80.0119 50.8355Z" fill="#40DDB6"/>
<path d="M85.6186 51.9674C85.5205 51.9229 85.4403 51.8337 85.4136 51.7179C84.7539 49.3914 85.6899 46.6816 86.9735 45.398C88.0431 44.3194 88.2392 44.3551 88.3819 44.3818C88.6314 44.4264 88.6849 44.4799 89.1306 45.7456C89.4515 46.6637 89.5763 47.3501 89.5763 48.188C89.5763 48.9189 89.1039 49.9708 89.0147 50.1758C88.569 51.1474 87.018 52.0298 86.0999 52.2259C86.0821 52.2349 86.0554 52.2349 86.0375 52.2349C85.8414 52.2527 85.6721 52.1368 85.6186 51.9674ZM87.535 45.9685C86.4654 47.0381 85.6542 49.3824 86.1534 51.3702C86.9467 51.1117 88.0075 50.4075 88.266 49.837C88.5066 49.3111 88.7562 48.598 88.7562 48.188C88.7562 47.4392 88.6493 46.8509 88.3551 46.0219C88.2927 45.8437 88.2125 45.6208 88.1323 45.4158C87.9005 45.6297 87.6064 45.8971 87.535 45.9685Z" fill="#40DDB6"/>
<path d="M94.7196 54.3122C94.5146 54.2766 94.3809 54.0894 94.3898 53.8844C94.3185 53.8041 94.2829 53.6883 94.3007 53.5724C94.6216 51.1835 96.5559 49.062 98.2406 48.3935C99.6579 47.8319 99.8094 47.9389 99.9342 48.0191C100.148 48.1617 100.175 48.233 100.086 49.5701C100.014 50.5417 99.8629 51.2191 99.5242 51.9857C99.2389 52.6364 98.4545 53.3763 98.2138 53.5902C97.6701 54.0716 96.6807 54.3211 95.816 54.3657C95.406 54.3925 95.0138 54.3746 94.7196 54.3122ZM98.5437 49.1422C97.1353 49.6949 95.4595 51.5311 95.1297 53.5546C95.9587 53.6259 97.2066 53.4119 97.679 52.9841C98.1069 52.5919 98.6239 52.0392 98.7843 51.6559C99.0874 50.9696 99.2211 50.3902 99.2835 49.5077C99.2924 49.3205 99.3102 49.0798 99.3192 48.8659C99.0072 48.9729 98.6417 49.1066 98.5437 49.1422Z" fill="#40DDB6"/>
<path d="M97.7145 38.846C97.5452 38.748 97.4828 38.543 97.563 38.3736C97.5273 38.2756 97.5273 38.1686 97.5808 38.0705C98.5792 36.1006 100.87 34.8348 102.537 34.7457C102.555 34.7457 102.573 34.7457 102.59 34.7457C103.99 34.6833 104.106 34.8259 104.186 34.9329C104.337 35.129 104.32 35.2092 103.847 36.3324C103.491 37.1613 103.152 37.7051 102.626 38.2667C102.163 38.7658 101.191 39.1848 101.004 39.265C100.79 39.3541 100.54 39.4076 100.264 39.4165C99.3636 39.4789 98.285 39.1848 97.7145 38.846ZM102.608 35.4945C101.182 35.5747 99.1942 36.6443 98.2939 38.3112C98.9981 38.6321 100.157 38.8193 100.692 38.5875C101.182 38.3825 101.797 38.0438 102.056 37.7675C102.528 37.2594 102.822 36.7959 103.143 36.0382C103.232 35.8243 103.312 35.6371 103.366 35.4945C103.063 35.4855 102.706 35.4855 102.608 35.4945Z" fill="#40DDB6"/>
<path d="M97.2689 38.6145C96.4132 38.4629 94.9424 37.7231 94.4878 36.8495C94.3898 36.6623 93.9173 35.7175 93.8817 35.04C93.846 34.2645 93.9262 33.6316 94.1847 32.767C94.5413 31.5815 94.5859 31.528 94.8176 31.4745C94.9513 31.4388 95.1207 31.4032 96.1636 32.348C97.4026 33.4712 98.3742 35.9403 97.8661 38.1153C97.8394 38.2222 97.777 38.3114 97.6879 38.356C97.6433 38.5075 97.5096 38.6145 97.3491 38.6234C97.3313 38.6145 97.2957 38.6145 97.2689 38.6145ZM94.9068 32.972C94.675 33.7564 94.5948 34.3002 94.6304 34.9865C94.6483 35.3609 94.9068 36.0116 95.1474 36.493C95.4149 37.01 96.4221 37.6161 97.162 37.8211C97.5363 35.9671 96.6895 33.8367 95.6555 32.8918C95.5842 32.8294 95.3079 32.5887 95.0761 32.4104C95.0226 32.5976 94.9602 32.8116 94.9068 32.972Z" fill="#40DDB6"/>
<path d="M86.0287 26.9644C85.7702 26.8396 84.8877 26.3761 84.4688 25.868C83.9785 25.2708 83.6665 24.7092 83.3635 23.8624C82.9445 22.6858 82.9534 22.6234 83.105 22.4451C83.1941 22.3382 83.31 22.2045 84.7094 22.356C86.3763 22.5254 88.6226 23.9337 89.5051 25.9839C89.5496 26.082 89.5407 26.1889 89.5051 26.287C89.5675 26.4653 89.4962 26.6614 89.3179 26.7505C88.8811 26.9733 88.1769 27.1516 87.4816 27.1962C86.9468 27.2051 86.4209 27.1516 86.0287 26.9644ZM84.6292 23.0869C84.5312 23.078 84.1657 23.0513 83.8716 23.0424C83.925 23.2117 83.9963 23.4167 84.0587 23.6039C84.3351 24.3705 84.6025 24.8519 85.0393 25.3867C85.2799 25.6808 85.8682 26.0552 86.3496 26.287C86.8755 26.5455 88.0432 26.4296 88.7563 26.1533C87.9719 24.4418 86.0198 23.2296 84.6292 23.0869Z" fill="#40DDB6"/>
<path d="M89.0059 25.9662C88.9256 25.9038 88.8632 25.8147 88.8543 25.7077C88.6047 23.4882 89.8527 21.1528 91.2076 20.1811C92.3396 19.3611 92.5268 19.4235 92.6427 19.468C92.8744 19.5483 92.9012 19.6285 93.124 20.8229C93.2845 21.7054 93.2934 22.3472 93.1686 23.1138C93.0616 23.7645 92.5268 24.6024 92.3574 24.8431C91.8048 25.6631 90.2627 26.2336 89.3981 26.2782C89.193 26.2871 89.0326 26.1534 89.0059 25.9662ZM91.6443 20.7784C90.5123 21.5984 89.4159 23.613 89.5853 25.5027C90.3429 25.3868 91.4126 24.9055 91.7424 24.4152C92.0455 23.9695 92.3753 23.3545 92.4377 22.9801C92.5536 22.2937 92.5446 21.75 92.3931 20.9388C92.3485 20.716 92.3129 20.5199 92.2861 20.3594C92.0276 20.5288 91.7246 20.7249 91.6443 20.7784Z" fill="#40DDB6"/>
<path d="M92.5803 70.2587C92.402 70.1161 92.3574 69.8576 92.4822 69.6615C92.4555 69.5456 92.4822 69.4119 92.5535 69.3049C94.1313 67.1032 97.162 66.0157 99.1676 66.2475C100.861 66.4347 100.968 66.6308 101.048 66.7734C101.182 67.023 101.173 67.1121 100.38 68.3868C99.8005 69.3138 99.2924 69.9021 98.5525 70.4815C97.9107 70.9896 96.6628 71.3194 96.4221 71.3818C96.2973 71.4175 96.1547 71.4353 96.0121 71.4442C94.8622 71.4977 93.3112 70.847 92.5803 70.2587ZM99.0785 67.1389C97.3848 66.9517 94.7642 67.8787 93.3825 69.715C94.158 70.223 95.5218 70.6687 96.2082 70.4905C96.8411 70.33 97.6344 70.0448 97.9999 69.7595C98.6595 69.2425 99.0963 68.7344 99.6222 67.8965C99.7202 67.745 99.8629 67.4954 99.9966 67.2815C99.6311 67.2191 99.1943 67.1567 99.0785 67.1389Z" fill="#40DDB6"/>
<path d="M50.4535 98.9699C63.9847 98.9699 76.6245 93.6127 86.0374 83.8789L84.531 82.417C75.5191 91.7409 63.4231 96.8663 50.4625 96.8663C24.3361 96.8663 3.07668 75.6069 3.07668 49.4805C3.07668 23.3542 24.3183 2.09474 50.4535 2.09474C57.3172 2.09474 63.9401 3.52987 70.1263 6.35554L70.9999 4.4569C64.5373 1.49752 57.6202 0 50.4535 0C23.1595 0 0.964111 22.1954 0.964111 49.4894C0.964111 76.7835 23.1595 98.9699 50.4535 98.9699Z" fill="#6B77E5"/>
<path d="M19.9148 34.8614C19.2374 34.487 18.7026 33.9611 18.3104 33.2837C17.9182 32.6062 17.7131 31.8486 17.7131 31.0107C17.7131 30.1728 17.9092 29.4151 18.3104 28.7466C18.7026 28.078 19.2374 27.5521 19.9148 27.1777C20.5923 26.8034 21.3321 26.6162 22.1344 26.6162C22.9455 26.6162 23.6854 26.8034 24.3539 27.1777C25.0314 27.5521 25.5573 28.078 25.9495 28.7466C26.3417 29.4151 26.5289 30.1728 26.5289 31.0107C26.5289 31.8486 26.3328 32.6062 25.9406 33.2837C25.5484 33.9611 25.0135 34.4781 24.345 34.8614C23.6765 35.2358 22.9366 35.423 22.1255 35.423C21.3232 35.423 20.5834 35.2358 19.9148 34.8614ZM23.7834 32.8291C24.1935 32.3745 24.3985 31.7683 24.3985 31.0196C24.3985 30.2619 24.1935 29.6558 23.7834 29.2012C23.3734 28.7466 22.8207 28.5237 22.1344 28.5237C21.4391 28.5237 20.8864 28.7466 20.4764 29.2012C20.0664 29.6469 19.8614 30.2619 19.8614 31.0285C19.8614 31.7862 20.0664 32.3923 20.4764 32.8469C20.8864 33.3015 21.4391 33.5244 22.1344 33.5244C22.8207 33.5154 23.3734 33.2837 23.7834 32.8291Z" fill="#37393F"/>
<path d="M38.2059 35.343L36.4142 32.0984H35.9151V35.343H33.8203V26.7412H37.3323C38.0098 26.7412 38.5892 26.8571 39.0616 27.0978C39.543 27.3384 39.8995 27.6593 40.1313 28.0694C40.363 28.4794 40.4878 28.9429 40.4878 29.451C40.4878 30.0215 40.3274 30.5296 40.0065 30.9842C39.6856 31.4388 39.2042 31.7508 38.5803 31.938L40.5681 35.343H38.2059ZM35.9151 30.6098H37.2165C37.5998 30.6098 37.885 30.5117 38.0811 30.3246C38.2683 30.1374 38.3664 29.87 38.3664 29.5312C38.3664 29.2014 38.2683 28.9518 38.0811 28.7557C37.885 28.5685 37.5998 28.4705 37.2165 28.4705H35.9151V30.6098Z" fill="#37393F"/>
<path d="M53.6357 29.4593C53.4842 29.1741 53.2614 28.9513 52.9672 28.7997C52.673 28.6482 52.3343 28.5769 51.9421 28.5769C51.2647 28.5769 50.7209 28.7997 50.3109 29.2454C49.9009 29.6911 49.6958 30.2883 49.6958 31.0282C49.6958 31.8215 49.9098 32.4365 50.3376 32.8822C50.7655 33.3279 51.3538 33.5508 52.1115 33.5508C52.6285 33.5508 53.0653 33.4171 53.4129 33.1586C53.7694 32.9001 54.0279 32.5257 54.1884 32.0354H51.5321V30.4933H56.087V32.4455C55.9355 32.9714 55.6681 33.4527 55.2937 33.9073C54.9193 34.353 54.4469 34.7185 53.8764 34.9948C53.3059 35.2711 52.6552 35.4138 51.9421 35.4138C51.0953 35.4138 50.3376 35.2266 49.6691 34.8522C49.0006 34.4778 48.4836 33.9608 48.1092 33.3012C47.7348 32.6416 47.5476 31.8839 47.5476 31.0371C47.5476 30.1903 47.7348 29.4326 48.1092 28.7641C48.4836 28.0955 49.0006 27.5785 49.6602 27.2041C50.3198 26.8298 51.0775 26.6426 51.9243 26.6426C52.9494 26.6426 53.8229 26.8922 54.5271 27.3913C55.2313 27.8905 55.7037 28.5769 55.9266 29.4593H53.6357Z" fill="#37393F"/>
<path d="M23.418 49.8367H20.2091L19.6921 51.352H17.4993L20.6102 42.7502H23.0347L26.1457 51.352H23.9261L23.418 49.8367ZM22.8832 48.2233L21.8135 45.0767L20.7617 48.2233H22.8832Z" fill="#37393F"/>
<path d="M40.9158 51.3606H38.821L35.3179 46.0569V51.3606H33.2231V42.7588H35.3179L38.821 48.0892V42.7588H40.9158V51.3606Z" fill="#37393F"/>
<path d="M50.6497 42.7588V51.3606H48.5549V42.7588H50.6497Z" fill="#37393F"/>
<path d="M18.2658 60.7914C18.6313 60.1229 19.1483 59.6059 19.799 59.2315C20.4497 58.8571 21.1984 58.6699 22.0363 58.6699C23.0614 58.6699 23.935 58.9373 24.657 59.4811C25.3879 60.0159 25.8693 60.7557 26.1188 61.6828H23.8191C23.6497 61.3262 23.4091 61.0499 23.0882 60.8627C22.7762 60.6755 22.4196 60.5775 22.0185 60.5775C21.3767 60.5775 20.8508 60.8003 20.4497 61.2549C20.0486 61.7006 19.8524 62.3068 19.8524 63.0555C19.8524 63.8043 20.0486 64.4104 20.4497 64.8561C20.8508 65.3018 21.3767 65.5335 22.0185 65.5335C22.4196 65.5335 22.7762 65.4444 23.0882 65.2483C23.4001 65.0611 23.6408 64.7848 23.8191 64.4282H26.1188C25.8782 65.3553 25.3879 66.0951 24.657 66.6299C23.9261 67.1648 23.0525 67.4322 22.0363 67.4322C21.2073 67.4322 20.4586 67.245 19.799 66.8706C19.1393 66.4962 18.6313 65.9792 18.2658 65.3196C17.9003 64.66 17.7131 63.9023 17.7131 63.0555C17.7131 62.2176 17.9003 61.4599 18.2658 60.7914Z" fill="#37393F"/>
<path d="M38.8834 65.855H35.6744L35.1574 67.3704H32.9646L36.0755 58.7686H38.5001L41.611 67.3704H39.3914L38.8834 65.855ZM38.3396 64.2416L37.27 61.0951L36.2181 64.2416H38.3396Z" fill="#37393F"/>
<path d="M50.7744 65.7567H53.5199V67.3701H48.6797V58.7683H50.7744V65.7567Z" fill="#37393F"/>
<path d="M19.8614 75.3045C19.9862 75.4561 20.0486 75.6343 20.0486 75.8304C20.0486 75.9998 20.004 76.1424 19.9149 76.2761C19.8257 76.4098 19.7009 76.5168 19.5405 76.5881C19.38 76.6683 19.1839 76.704 18.97 76.704H17.6597V73.4326H18.9076C19.1304 73.4326 19.3266 73.4683 19.487 73.5485C19.6474 73.6287 19.7722 73.7268 19.8525 73.8516C19.9327 73.9764 19.9773 74.119 19.9773 74.2794C19.9773 74.4666 19.9238 74.6271 19.8257 74.7519C19.7277 74.8767 19.594 74.9747 19.4246 75.0282C19.594 75.0549 19.7366 75.1441 19.8614 75.3045ZM18.1945 74.8053H18.863C19.0413 74.8053 19.175 74.7697 19.2731 74.6895C19.3711 74.6092 19.4246 74.4934 19.4246 74.3418C19.4246 74.1903 19.3711 74.0833 19.2731 73.9942C19.175 73.914 19.0324 73.8694 18.863 73.8694H18.1945V74.8053ZM19.3533 76.1335C19.4603 76.0444 19.5048 75.9196 19.5048 75.768C19.5048 75.6076 19.4513 75.4828 19.3355 75.3847C19.2285 75.2867 19.077 75.2421 18.8987 75.2421H18.1945V76.2672H18.9165C19.1037 76.2672 19.2463 76.2226 19.3533 76.1335Z" fill="#37393F"/>
<path d="M23.6409 76.5254C23.3824 76.3827 23.1863 76.1866 23.0347 75.9281C22.8832 75.6696 22.8119 75.3844 22.8119 75.0635C22.8119 74.7426 22.8832 74.4573 23.0347 74.1988C23.1863 73.9403 23.3824 73.7442 23.6409 73.6016C23.8994 73.459 24.1757 73.3877 24.4788 73.3877C24.7908 73.3877 25.0671 73.459 25.3256 73.6016C25.5841 73.7442 25.7802 73.9403 25.9317 74.1988C26.0833 74.4573 26.1546 74.7426 26.1546 75.0635C26.1546 75.3844 26.0833 75.6696 25.9317 75.9281C25.7802 76.1866 25.5841 76.3827 25.3256 76.5254C25.0671 76.668 24.7908 76.7393 24.4788 76.7393C24.1757 76.7393 23.8905 76.668 23.6409 76.5254ZM25.0582 76.1242C25.2275 76.0262 25.3612 75.8836 25.4593 75.6964C25.5573 75.5092 25.6019 75.3042 25.6019 75.0546C25.6019 74.8139 25.5573 74.6 25.4593 74.4217C25.3612 74.2434 25.2275 74.1008 25.0582 74.0027C24.8888 73.9047 24.6927 73.8601 24.4788 73.8601C24.2648 73.8601 24.0687 73.9047 23.8994 74.0027C23.73 74.1008 23.5963 74.2434 23.4983 74.4217C23.4002 74.6 23.3556 74.8139 23.3556 75.0546C23.3556 75.2952 23.4002 75.5092 23.4983 75.6964C23.5963 75.8836 23.73 76.0173 23.8994 76.1242C24.0687 76.2223 24.2648 76.2758 24.4788 76.2758C24.6927 76.2758 24.8888 76.2223 25.0582 76.1242Z" fill="#37393F"/>
<path d="M31.1462 73.4326V73.8694H30.2726V76.704H29.7378V73.8694H28.8643V73.4326H31.1462Z" fill="#37393F"/>
<path d="M36.022 76.0356H34.6493L34.4175 76.7041H33.856L35.0326 73.4238H35.6565L36.8332 76.7041H36.2716L36.022 76.0356ZM35.8705 75.5988L35.3356 74.0745L34.8008 75.5988H35.8705Z" fill="#37393F"/>
<path d="M42.3776 76.7041H41.8428L40.2294 74.2617V76.7041H39.6946V73.4238H40.2294L41.8428 75.8662V73.4238H42.3776V76.7041Z" fill="#37393F"/>
<path d="M45.9789 73.4326V76.704H45.4441V73.4326H45.9789Z" fill="#37393F"/>
<path d="M49.0808 74.1988C49.2323 73.9403 49.4284 73.7442 49.6869 73.6016C49.9454 73.459 50.2217 73.3877 50.5248 73.3877C50.8724 73.3877 51.1844 73.4768 51.4518 73.6462C51.7192 73.8156 51.9243 74.0562 52.0401 74.3771H51.3983C51.3181 74.2078 51.1933 74.0741 51.0418 73.9938C50.8903 73.9047 50.7209 73.869 50.5159 73.869C50.3019 73.869 50.1058 73.9136 49.9365 74.0117C49.7671 74.1097 49.6334 74.2523 49.5354 74.4306C49.4373 74.6089 49.3927 74.8228 49.3927 75.0635C49.3927 75.3042 49.4373 75.5181 49.5354 75.6964C49.6334 75.8746 49.7671 76.0173 49.9365 76.1153C50.1058 76.2134 50.3019 76.2668 50.5159 76.2668C50.712 76.2668 50.8903 76.2223 51.0418 76.1421C51.1933 76.0529 51.3092 75.9281 51.3983 75.7588H52.0401C51.9153 76.0707 51.7192 76.3114 51.4518 76.4808C51.1755 76.6501 50.8724 76.7393 50.5248 76.7393C50.2128 76.7393 49.9365 76.668 49.678 76.5254C49.4195 76.3827 49.2234 76.1866 49.0718 75.9281C48.9203 75.6696 48.849 75.3844 48.849 75.0635C48.849 74.7426 48.9292 74.4484 49.0808 74.1988Z" fill="#37393F"/>
<path d="M57.0142 76.0356H55.6415L55.4097 76.7041H54.8481L56.0248 73.4238H56.6487L57.8254 76.7041H57.2638L57.0142 76.0356ZM56.8627 75.5988L56.3278 74.0745L55.793 75.5988H56.8627Z" fill="#37393F"/>
<path d="M61.2126 76.2672H62.3179V76.704H60.6777V73.4326H61.2126V76.2672Z" fill="#37393F"/>
<path d="M56.0426 44.6499V45.6125H57.1747V46.0493H56.0426V47.0566H57.3173V47.4934H55.5078V44.2131H57.3173V44.6499H56.0426Z" fill="#37393F"/>
<path d="M59.8755 47.4126C59.6973 47.3324 59.5635 47.2254 59.4655 47.0828C59.3674 46.9402 59.314 46.7797 59.314 46.5925H59.8844C59.8934 46.7351 59.9558 46.851 60.0538 46.9402C60.1519 47.0293 60.2945 47.0739 60.4728 47.0739C60.66 47.0739 60.8026 47.0293 60.9095 46.9402C61.0165 46.851 61.0611 46.7351 61.0611 46.5925C61.0611 46.4856 61.0254 46.3964 60.963 46.3251C60.9006 46.2538 60.8204 46.2003 60.7223 46.1647C60.6243 46.129 60.4906 46.0844 60.3212 46.0399C60.1073 45.9864 59.9379 45.924 59.8042 45.8705C59.6705 45.817 59.5546 45.719 59.4655 45.6031C59.3674 45.4783 59.3229 45.3178 59.3229 45.1128C59.3229 44.9256 59.3674 44.7563 59.4655 44.6137C59.5635 44.471 59.6883 44.3641 59.8577 44.2928C60.0271 44.2214 60.2232 44.1769 60.446 44.1769C60.7669 44.1769 61.0254 44.2571 61.2304 44.4176C61.4355 44.578 61.5424 44.7919 61.5692 45.0683H60.9719C60.963 44.9524 60.9095 44.8454 60.8026 44.7652C60.6956 44.685 60.5619 44.6404 60.3925 44.6404C60.241 44.6404 60.1162 44.6761 60.0182 44.7563C59.9201 44.8365 59.8755 44.9435 59.8755 45.095C59.8755 45.1931 59.9023 45.2822 59.9647 45.3446C60.0271 45.407 60.1073 45.4605 60.1964 45.4961C60.2945 45.5318 60.4193 45.5763 60.5797 45.6209C60.7937 45.6833 60.9719 45.7368 61.1056 45.7992C61.2393 45.8616 61.3552 45.9507 61.4533 46.0755C61.5513 46.2003 61.5959 46.3608 61.5959 46.5747C61.5959 46.7441 61.5513 46.8956 61.4622 47.0471C61.3731 47.1987 61.2393 47.3145 61.07 47.4037C60.9006 47.4928 60.6956 47.5374 60.4638 47.5374C60.2499 47.5285 60.0538 47.4839 59.8755 47.4126Z" fill="#37393F"/>
<path d="M65.7675 44.2219V44.6586H64.894V47.4932H64.3592V44.6586H63.4856V44.2219H65.7675Z" fill="#37393F"/>
<path d="M55.7395 52.413C56.0425 52.1545 56.2743 51.9406 56.4526 51.7713C56.6309 51.6019 56.7735 51.4236 56.8894 51.2453C57.0052 51.0671 57.0676 50.8799 57.0676 50.7016C57.0676 50.5144 57.0231 50.3629 56.9339 50.2559C56.8448 50.1489 56.7022 50.0955 56.515 50.0955C56.3278 50.0955 56.1852 50.1579 56.0871 50.2737C55.9801 50.3896 55.9267 50.5501 55.9267 50.7462H55.4097C55.4186 50.3896 55.5255 50.1133 55.7306 49.9261C55.9356 49.7389 56.1941 49.6409 56.515 49.6409C56.8537 49.6409 57.1211 49.7389 57.3172 49.9261C57.5133 50.1133 57.6114 50.3629 57.6114 50.6838C57.6114 50.9066 57.5579 51.1295 57.442 51.3345C57.3261 51.5395 57.1924 51.7267 57.032 51.896C56.8715 52.0654 56.6754 52.2526 56.4258 52.4665L56.2119 52.6537H57.7005V53.0994H55.4097V52.7072L55.7395 52.413Z" fill="#37393F"/>
<path d="M59.8486 50.1131C60.0358 49.81 60.3478 49.6496 60.8024 49.6496C61.257 49.6496 61.569 49.8011 61.7472 50.1131C61.9344 50.4162 62.0236 50.844 62.0236 51.3878C62.0236 51.9404 61.9344 52.3683 61.7472 52.6803C61.56 52.9923 61.2481 53.1438 60.8024 53.1438C60.3567 53.1438 60.0358 52.9923 59.8486 52.6803C59.6614 52.3683 59.5723 51.9404 59.5723 51.3878C59.5723 50.844 59.6614 50.4162 59.8486 50.1131ZM61.4442 50.7371C61.4085 50.5588 61.3461 50.4162 61.2481 50.3092C61.15 50.2023 60.9985 50.1399 60.8024 50.1399C60.6063 50.1399 60.4547 50.1933 60.3567 50.3092C60.2586 50.4251 60.1873 50.5677 60.1606 50.7371C60.1338 50.9064 60.1071 51.1293 60.1071 51.3789C60.1071 51.6463 60.1249 51.8602 60.1517 52.0474C60.1784 52.2346 60.2497 52.3683 60.3478 52.4842C60.4458 52.5912 60.5974 52.6535 60.7935 52.6535C60.9896 52.6535 61.1411 52.6001 61.2391 52.4842C61.3372 52.3772 61.4085 52.2257 61.4352 52.0474C61.462 51.8691 61.4798 51.6463 61.4798 51.3789C61.4887 51.1293 61.4709 50.9154 61.4442 50.7371Z" fill="#37393F"/>
<path d="M64.2966 52.413C64.5997 52.1545 64.8314 51.9406 65.0097 51.7712C65.188 51.6018 65.3306 51.4236 65.4465 51.2453C65.5624 51.067 65.6248 50.8798 65.6248 50.7016C65.6248 50.5144 65.5802 50.3628 65.4911 50.2559C65.4019 50.1489 65.2593 50.0954 65.0721 50.0954C64.8849 50.0954 64.7423 50.1578 64.6442 50.2737C64.5373 50.3896 64.4838 50.55 64.4838 50.7461H63.9668C63.9757 50.3896 64.0827 50.1132 64.2877 49.926C64.4927 49.7389 64.7512 49.6408 65.0721 49.6408C65.4108 49.6408 65.6782 49.7389 65.8743 49.926C66.0705 50.1132 66.1685 50.3628 66.1685 50.6837C66.1685 50.9066 66.115 51.1294 65.9991 51.3344C65.8833 51.5394 65.7496 51.7266 65.5891 51.896C65.4287 52.0654 65.2326 52.2526 64.983 52.4665L64.769 52.6537H66.2576V53.0994H63.9668V52.7072L64.2966 52.413Z" fill="#37393F"/>
<path d="M68.415 50.1131C68.6022 49.81 68.9142 49.6496 69.3688 49.6496C69.8234 49.6496 70.1354 49.8011 70.3136 50.1131C70.5008 50.4162 70.59 50.844 70.59 51.3878C70.59 51.9404 70.5008 52.3683 70.3136 52.6803C70.1265 52.9923 69.8145 53.1438 69.3688 53.1438C68.9231 53.1438 68.6022 52.9923 68.415 52.6803C68.2278 52.3683 68.1387 51.9404 68.1387 51.3878C68.1387 50.844 68.2278 50.4162 68.415 50.1131ZM70.0106 50.7371C69.9749 50.5588 69.9125 50.4162 69.8145 50.3092C69.7164 50.2023 69.5649 50.1399 69.3688 50.1399C69.1727 50.1399 69.0211 50.1933 68.9231 50.3092C68.825 50.4251 68.7537 50.5677 68.727 50.7371C68.7002 50.9064 68.6735 51.1293 68.6735 51.3789C68.6735 51.6463 68.6913 51.8602 68.7181 52.0474C68.7448 52.2346 68.8161 52.3683 68.9142 52.4842C69.0122 52.5912 69.1638 52.6535 69.3599 52.6535C69.556 52.6535 69.7075 52.6001 69.8056 52.4842C69.9036 52.3772 69.9749 52.2257 70.0017 52.0474C70.0284 51.8691 70.0462 51.6463 70.0462 51.3789C70.0551 51.1293 70.0373 50.9154 70.0106 50.7371Z" fill="#37393F"/>
</svg>
