<svg width="121" height="73" viewBox="0 0 121 73" fill="none" xmlns="http://www.w3.org/2000/svg">
<path d="M62.1662 61.6057C48.4496 75.5819 25.9231 75.7968 11.9469 62.0713C11.3381 61.4714 10.7472 60.8537 10.1831 60.218L11.5261 59.0361C12.0633 59.636 12.6184 60.2359 13.2004 60.7999C26.4692 73.827 47.8677 73.6301 60.8948 60.3523L62.1662 61.6057Z" fill="#40DDB6"/>
<path d="M64.1539 14.0549L62.775 15.2009C62.0409 14.3235 61.253 13.464 60.4382 12.6582C47.1694 -0.368921 25.7709 -0.162994 12.7438 13.1058C11.8574 14.0101 11.0069 14.9771 10.2279 15.9709L8.82227 14.8697C9.63702 13.8221 10.5324 12.8104 11.4725 11.8524C25.189 -2.12377 47.7155 -2.33865 61.6917 11.3779C62.5602 12.2284 63.3839 13.1327 64.1539 14.0549Z" fill="#40DDB6"/>
<path d="M111.571 12.7835L110.228 13.9653C109.691 13.3654 109.136 12.7656 108.554 12.2015C96.3323 0.212984 77.0736 -0.736069 63.769 10.0079L62.6409 8.61121C76.6528 -2.7058 96.9232 -1.71198 109.798 10.9212C110.416 11.53 111.007 12.1478 111.571 12.7835Z" fill="#40DDB6"/>
<path d="M110.272 61.1586C98.3914 73.2635 79.5178 75.278 65.3894 65.9486L66.3743 64.4534C79.7864 73.3082 97.7109 71.3922 108.992 59.9051C109.879 59.0008 110.729 58.0339 111.508 57.04L112.914 58.1413C112.099 59.1888 111.213 60.2006 110.272 61.1586Z" fill="#40DDB6"/>
<path d="M5.48279 55.1603L5.90359 54.9006L6.73625 56.2436L7.6674 55.6617L7.01381 54.6141L7.43461 54.3545L8.08821 55.402L9.47597 54.5425L9.79829 55.0618L6.62881 57.0315L5.48279 55.1603Z" fill="#37393F"/>
<path d="M6.584 50.0482L6.10052 48.8843L6.55714 48.6963L7.28236 50.4243L3.83533 51.8568L3.60254 51.2928L6.584 50.0482Z" fill="#37393F"/>
<path d="M5.22307 45.1325C5.12458 45.4548 4.95446 45.7323 4.70377 45.9562C4.45308 46.189 4.15762 46.3412 3.79949 46.4217C3.44135 46.5023 3.10113 46.4934 2.78776 46.3859C2.47439 46.2785 2.19684 46.1084 1.97301 45.8577C1.74917 45.607 1.59697 45.3115 1.52534 44.9713C1.44476 44.6311 1.45371 44.2998 1.5522 43.9775C1.65069 43.6552 1.8208 43.3866 2.06254 43.1538C2.31323 42.9299 2.60869 42.7777 2.96683 42.6972C3.32496 42.6166 3.66519 42.6255 3.98751 42.733C4.30983 42.8315 4.57843 43.0016 4.80226 43.2523C5.02609 43.503 5.1783 43.7984 5.24993 44.1386C5.33051 44.4789 5.3126 44.8101 5.22307 45.1325ZM4.42622 43.6462C4.27401 43.4851 4.08599 43.3687 3.85321 43.306C3.62042 43.2433 3.37868 43.2433 3.11008 43.306C2.84148 43.3687 2.61765 43.4761 2.43858 43.6283C2.25951 43.7805 2.13417 43.9596 2.07149 44.1745C2.00882 44.3893 1.99987 44.6132 2.05359 44.8549C2.10731 45.0966 2.20579 45.3026 2.358 45.4637C2.51021 45.6249 2.69823 45.7413 2.92206 45.804C3.14589 45.8666 3.39659 45.8666 3.66519 45.804C3.93379 45.7413 4.15762 45.6339 4.33669 45.4816C4.51575 45.3294 4.6411 45.1504 4.71273 44.9355C4.78435 44.7206 4.78435 44.4968 4.73063 44.255C4.67691 44.0133 4.57843 43.8163 4.42622 43.6462Z" fill="#37393F"/>
<path d="M4.39042 37.2266L2.93103 38.1398L2.94893 38.6054L4.44414 38.5517L4.46205 39.1605L0.728508 39.2858L0.683742 38.0055C0.674788 37.719 0.719555 37.4773 0.809088 37.2713C0.898622 37.0654 1.03292 36.9132 1.19408 36.8147C1.35524 36.7073 1.54326 36.6536 1.74919 36.6446C1.99093 36.6357 2.21476 36.6983 2.42069 36.8326C2.62661 36.9669 2.76987 37.1818 2.85045 37.4683L4.36356 36.4924L4.39042 37.2266ZM2.4565 38.6233L2.42964 37.9428C2.42069 37.7101 2.35801 37.5399 2.24162 37.4325C2.12523 37.3161 1.96407 37.2713 1.77605 37.2713C1.58803 37.2803 1.43582 37.343 1.32838 37.4594C1.22094 37.5758 1.17617 37.7548 1.18513 37.9876L1.21199 38.6591L2.4565 38.6233Z" fill="#37393F"/>
<path d="M4.08605 30.9061L3.87117 32.455L4.58744 32.831L4.49791 33.4667L0.979248 31.6223L1.07773 30.924L4.96348 30.1182L4.87395 30.7538L4.08605 30.9061ZM3.56676 31.0045L1.76714 31.3627L3.4056 32.2043L3.56676 31.0045Z" fill="#37393F"/>
<path d="M5.41108 26.3394L5.77816 25.1307L6.25269 25.2739L5.70654 27.0646L2.13416 25.9812L2.31322 25.3993L5.41108 26.3394Z" fill="#37393F"/>
<path d="M7.49721 21.8806C7.32709 22.0239 7.14803 22.1134 6.96001 22.1492C6.76303 22.185 6.57501 22.1582 6.37804 22.0597L6.66455 21.4688C6.81675 21.5225 6.96001 21.5225 7.10326 21.4688C7.24651 21.4151 7.36291 21.2897 7.45244 21.1106C7.54197 20.9226 7.56883 20.7525 7.52407 20.6003C7.48825 20.4481 7.38977 20.3407 7.24651 20.269C7.13012 20.2153 7.02268 20.2064 6.92419 20.2332C6.82571 20.269 6.72722 20.3228 6.63769 20.4033C6.55711 20.4839 6.44967 20.6003 6.31537 20.7525C6.15421 20.9405 6.01095 21.0927 5.88561 21.2002C5.76026 21.3076 5.60805 21.3792 5.43794 21.4151C5.26783 21.4509 5.07085 21.4151 4.86493 21.3166C4.66795 21.227 4.5247 21.0927 4.42621 20.9316C4.32773 20.7615 4.28296 20.5734 4.28296 20.3675C4.29191 20.1526 4.34563 19.9378 4.45307 19.705C4.60528 19.3827 4.82016 19.1499 5.07981 19.0156C5.33945 18.8813 5.61701 18.8813 5.91247 18.9887L5.61701 19.5975C5.49166 19.5528 5.36631 19.5617 5.22306 19.6244C5.08876 19.6871 4.97237 19.8124 4.89179 19.9825C4.82016 20.1437 4.7933 20.2869 4.82911 20.4302C4.86493 20.5734 4.95446 20.6719 5.10667 20.7436C5.21411 20.7973 5.31259 20.8062 5.40213 20.7704C5.50061 20.7436 5.59015 20.6809 5.67073 20.6093C5.75131 20.5287 5.85875 20.4212 5.98409 20.269C6.15421 20.0721 6.29746 19.9199 6.43176 19.8124C6.55711 19.705 6.70931 19.6244 6.88838 19.5886C7.06745 19.5528 7.25547 19.5796 7.47035 19.6871C7.64046 19.7676 7.78371 19.893 7.89115 20.0542C7.99859 20.2153 8.05231 20.4123 8.06127 20.6272C8.07022 20.851 8.0165 21.0748 7.90011 21.3166C7.80162 21.5494 7.66732 21.7374 7.49721 21.8806Z" fill="#37393F"/>
<path d="M116.155 18.4868L115.725 18.7375L114.928 17.3676L113.979 17.9227L114.597 18.9882L114.167 19.2389L113.549 18.1734L112.135 18.9971L111.83 18.4689L115.062 16.5977L116.155 18.4868Z" fill="#37393F"/>
<path d="M114.91 23.563L115.358 24.7448L114.901 24.9239L114.23 23.169L117.713 21.835L117.927 22.408L114.91 23.563Z" fill="#37393F"/>
<path d="M116.128 28.5228C116.235 28.2005 116.414 27.9319 116.665 27.717C116.916 27.5021 117.229 27.3499 117.587 27.2783C117.945 27.2066 118.286 27.2335 118.599 27.3409C118.912 27.4573 119.181 27.6364 119.396 27.896C119.611 28.1557 119.754 28.4511 119.817 28.7914C119.879 29.1316 119.861 29.4629 119.754 29.7852C119.647 30.0986 119.468 30.3672 119.217 30.591C118.966 30.8148 118.662 30.9581 118.304 31.0208C117.945 31.0924 117.605 31.0655 117.292 30.9581C116.97 30.8506 116.71 30.6626 116.495 30.4119C116.28 30.1523 116.137 29.8568 116.074 29.5076C116.003 29.1674 116.021 28.8361 116.128 28.5228ZM116.88 30.0269C117.032 30.197 117.211 30.3134 117.444 30.3851C117.677 30.4567 117.919 30.4567 118.187 30.4119C118.456 30.3582 118.68 30.2597 118.868 30.1165C119.047 29.9732 119.181 29.7941 119.253 29.5793C119.324 29.3644 119.333 29.1406 119.288 28.8988C119.244 28.6571 119.145 28.4511 119.002 28.281C118.859 28.1109 118.671 27.9945 118.447 27.9229C118.223 27.8513 117.972 27.8513 117.704 27.896C117.435 27.9498 117.202 28.0482 117.023 28.1915C116.844 28.3348 116.71 28.5138 116.638 28.7287C116.567 28.9436 116.549 29.1674 116.594 29.4091C116.638 29.6509 116.737 29.8568 116.88 30.0269Z" fill="#37393F"/>
<path d="M116.728 36.4472L118.214 35.5787V35.1131L116.719 35.1221V34.5132L120.452 34.4953L120.461 35.7846C120.461 36.0711 120.416 36.3129 120.318 36.5098C120.219 36.7068 120.085 36.859 119.915 36.9575C119.745 37.056 119.557 37.1097 119.351 37.1097C119.109 37.1097 118.885 37.0381 118.688 36.9038C118.492 36.7695 118.348 36.5456 118.277 36.2502L116.737 37.1813L116.728 36.4472ZM118.697 35.1042V35.7846C118.697 36.0174 118.76 36.1875 118.876 36.3039C118.993 36.4203 119.145 36.474 119.342 36.474C119.539 36.474 119.682 36.4113 119.799 36.3039C119.906 36.1875 119.96 36.0174 119.96 35.7846V35.1042H118.697Z" fill="#37393F"/>
<path d="M116.844 42.7678L117.104 41.2279L116.397 40.8339L116.504 40.1982L119.969 42.1411L119.853 42.8395L115.94 43.5378L116.047 42.9021L116.844 42.7678ZM117.372 42.6873L119.181 42.3739L117.569 41.4786L117.372 42.6873Z" fill="#37393F"/>
<path d="M115.394 47.2988L114.991 48.4985L114.525 48.3374L115.116 46.5557L118.662 47.7375L118.465 48.3195L115.394 47.2988Z" fill="#37393F"/>
<path d="M113.182 51.6947C113.352 51.5604 113.531 51.4709 113.728 51.444C113.925 51.4172 114.113 51.453 114.31 51.5515L114.015 52.1334C113.863 52.0708 113.719 52.0708 113.576 52.1245C113.433 52.1782 113.317 52.2946 113.218 52.4737C113.12 52.6617 113.093 52.8318 113.129 52.984C113.164 53.1362 113.254 53.2526 113.397 53.3242C113.505 53.3779 113.612 53.3959 113.719 53.369C113.827 53.3421 113.916 53.2884 114.006 53.2078C114.095 53.1273 114.203 53.0198 114.337 52.8676C114.507 52.6796 114.651 52.5363 114.785 52.4289C114.91 52.3215 115.062 52.2588 115.233 52.223C115.403 52.1872 115.6 52.2319 115.806 52.3394C115.994 52.4378 116.137 52.5721 116.235 52.7423C116.334 52.9124 116.37 53.1004 116.361 53.3153C116.352 53.5302 116.28 53.745 116.164 53.9689C116.003 54.2912 115.779 54.515 115.519 54.6404C115.25 54.7657 114.973 54.7657 114.677 54.6404L114.991 54.0405C115.116 54.0942 115.25 54.0853 115.394 54.0315C115.537 53.9689 115.644 53.8525 115.734 53.6824C115.815 53.5302 115.841 53.3779 115.815 53.2347C115.788 53.0914 115.698 52.984 115.546 52.9124C115.447 52.8587 115.349 52.8497 115.25 52.8766C115.152 52.9034 115.062 52.9571 114.973 53.0288C114.883 53.1004 114.776 53.2168 114.651 53.36C114.48 53.5481 114.328 53.7003 114.194 53.8077C114.06 53.9151 113.907 53.9868 113.737 54.0226C113.558 54.0584 113.37 54.0136 113.155 53.9062C112.985 53.8167 112.851 53.6913 112.752 53.5212C112.645 53.3511 112.6 53.1631 112.591 52.9392C112.591 52.7154 112.654 52.4916 112.77 52.2588C112.869 52.017 113.012 51.838 113.182 51.6947Z" fill="#37393F"/>
<path d="M34.2229 28.7025C35.2973 28.7025 36.1121 28.5771 36.6761 28.3354C37.2312 28.0847 37.5983 27.8967 37.7684 27.7713C37.7684 28.031 37.7147 28.3443 37.6073 28.7025C37.4998 29.0695 37.3028 29.4187 37.0253 29.7679C36.7477 30.1081 36.3806 30.4036 35.933 30.6364C35.4853 30.8692 34.9123 30.9945 34.2229 30.9945C33.3455 30.9945 32.4949 30.8244 31.6801 30.4931C30.8654 30.1619 30.0596 29.8037 29.2628 29.4098C28.4659 29.0248 27.687 28.6666 26.908 28.3264C26.1291 27.9862 25.3412 27.825 24.5264 27.825C23.649 27.825 22.8701 27.9683 22.2075 28.2458C21.545 28.5234 20.9809 28.8994 20.5153 29.3561C20.0498 29.8216 19.6737 30.3409 19.3693 30.9318C19.0649 31.5228 18.8232 32.1226 18.6441 32.7404C18.465 33.3492 18.3397 33.9491 18.277 34.5311C18.2143 35.113 18.1785 35.6234 18.1785 36.08C18.1785 36.7067 18.2322 37.1902 18.3397 37.5483C18.4471 37.9065 18.5188 38.1303 18.5635 38.2378V38.2736C18.1159 38.1482 17.704 37.9602 17.3369 37.7274C17.0325 37.5125 16.7639 37.226 16.5132 36.8589C16.2625 36.4919 16.1461 36.0173 16.1461 35.4443C16.1461 34.54 16.3431 33.6089 16.746 32.6419C17.1399 31.675 17.695 30.7975 18.4024 30.0007C19.1097 29.2038 19.9692 28.5502 20.9809 28.031C21.9926 27.5117 23.1118 27.261 24.3295 27.261C25.0368 27.261 25.8247 27.3326 26.6842 27.4848C27.5437 27.637 28.4211 27.7982 29.3075 27.9862C30.2028 28.1653 31.0713 28.3354 31.9219 28.4876C32.7635 28.6308 33.5335 28.7025 34.2229 28.7025ZM22.1001 45.2124C22.1001 44.9975 22.1628 44.6394 22.2792 44.138C22.3955 43.6366 22.5567 43.0367 22.7626 42.3384C22.9686 41.64 23.2013 40.8611 23.4699 40.0016C23.7385 39.142 24.0161 38.2557 24.2937 37.3335C23.7117 37.4588 23.2282 37.5215 22.8432 37.5215C22.5836 37.5215 22.3687 37.4767 22.1986 37.3961C22.0285 37.3156 21.8852 37.2171 21.7778 37.1007C21.6703 36.9843 21.5987 36.8769 21.5539 36.7694C21.5092 36.662 21.4913 36.5814 21.4913 36.5098C21.5539 36.5724 21.6793 36.6441 21.8583 36.7157C22.0374 36.7873 22.2433 36.8321 22.4582 36.8321C22.691 36.8321 22.9954 36.7963 23.3625 36.7157C23.7296 36.6441 24.1235 36.5456 24.5533 36.4381C24.7682 35.6592 24.9831 34.8892 25.1979 34.1282C25.4128 33.3582 25.6008 32.6509 25.762 32.0062C25.9232 31.3616 26.0485 30.8065 26.147 30.3409C26.2455 29.8753 26.2902 29.5441 26.2902 29.3561C26.2902 29.2665 26.2902 29.1949 26.2902 29.1322C26.2902 29.0695 26.2813 28.9621 26.2544 28.8099C26.4066 28.8547 26.6215 28.9263 26.8991 29.0337C27.1766 29.1412 27.4452 29.2665 27.7049 29.4008C27.9645 29.5441 28.1884 29.6784 28.3853 29.8037C28.5823 29.9291 28.6718 30.0276 28.6718 30.0902C28.6718 30.4305 28.5286 31.1109 28.2331 32.1226C27.9466 33.1344 27.5795 34.3252 27.1498 35.704C27.7765 35.5339 28.2779 35.3727 28.6629 35.2384C29.0479 35.0951 29.406 34.9967 29.7283 34.934C29.7283 34.7639 29.7104 34.6296 29.6656 34.549C29.9432 34.5938 30.2297 34.6385 30.5162 34.6743C30.8027 34.7191 31.0713 34.7728 31.322 34.8355C31.5727 34.8982 31.7697 34.9787 31.9219 35.0772C32.0741 35.1757 32.1457 35.2832 32.1457 35.4175C32.1457 35.6144 32.101 35.8383 32.0204 36.0979C31.9308 36.3576 31.8413 36.6262 31.7339 36.9037C31.6264 37.1813 31.5369 37.4588 31.4563 37.7453C31.3757 38.0318 31.3578 38.2915 31.3757 38.5511C31.2235 38.5511 31.0087 38.5511 30.7311 38.5511C30.4535 38.5511 30.176 38.5422 29.9074 38.5153C29.6388 38.4974 29.406 38.4437 29.2001 38.3721C28.9942 38.3004 28.8957 38.1751 28.8957 38.005C28.8957 37.8796 28.9315 37.7095 29.0121 37.5036C29.0837 37.2977 29.1732 37.0828 29.2717 36.841C29.3702 36.6083 29.4597 36.3665 29.5493 36.1337C29.6388 35.9009 29.7015 35.695 29.7462 35.5249C29.3791 35.6323 28.9852 35.7845 28.5554 35.9726C28.1257 36.1695 27.5885 36.3665 26.9438 36.5814C26.6663 37.5304 26.3798 38.4885 26.0933 39.4644C25.8068 40.4403 25.5382 41.3714 25.3054 42.2488C25.0726 43.1263 24.8667 43.9231 24.7055 44.6215C24.5443 45.3198 24.4548 45.875 24.428 46.2778C24.3384 46.2599 24.1683 46.2062 23.9087 46.1167C23.649 46.0272 23.3894 45.9376 23.1208 45.8391C22.8522 45.7407 22.6194 45.6422 22.4135 45.5347C22.2075 45.4273 22.1001 45.3198 22.1001 45.2124Z" fill="#6B77E5"/>
<path d="M92.7867 42.4553C92.9389 41.9002 93.1806 41.0228 93.5119 39.8409C93.8431 38.6591 94.255 37.3429 94.7385 35.8925C95.222 34.4421 95.7771 32.9469 96.4127 31.4158C97.0484 29.8759 97.7199 28.4791 98.4452 27.2078C99.1614 25.9364 99.9314 24.8978 100.737 24.0831C101.543 23.2683 102.376 22.8564 103.235 22.8564C103.558 22.8564 103.862 22.9639 104.157 23.1788C104.444 23.3936 104.712 23.6264 104.945 23.8861C105.205 24.1905 105.447 24.5307 105.688 24.9157C105.626 24.8978 105.545 24.8709 105.465 24.853C105.402 24.8351 105.321 24.8083 105.241 24.7904C105.151 24.7725 105.071 24.7546 104.981 24.7546C103.889 24.7546 102.85 25.1395 101.883 25.9185C100.916 26.6885 100.012 27.6733 99.1793 28.8641C98.3377 30.0549 97.5856 31.38 96.9052 32.8305C96.2247 34.2809 95.6338 35.6866 95.1145 37.0385C94.5952 38.3905 94.1655 39.6171 93.8073 40.7094C93.4492 41.8017 93.1985 42.5985 93.0463 43.091C93.1716 43.3506 93.3059 43.5118 93.4313 43.5745C92.9568 43.6371 92.518 43.6461 92.1062 43.5924C91.6943 43.5386 91.3362 43.3864 91.0139 43.1447C90.6916 42.894 90.4319 42.5448 90.2439 42.0793C90.0469 41.6137 89.9395 41.0317 89.9216 40.3244C89.9037 39.6619 89.8768 38.8113 89.8589 37.7906C89.841 36.7699 89.8141 35.7492 89.7962 34.7286C89.7783 33.7079 89.7604 32.7946 89.7515 31.9888C89.7425 31.183 89.7336 30.6727 89.7336 30.4578V29.9385C89.5634 30.4578 89.268 31.2815 88.8651 32.4186C88.4532 33.5557 87.9519 34.836 87.352 36.2506C86.7521 37.6653 86.0806 39.1246 85.3375 40.6199C84.5944 42.1151 83.8154 43.4849 83.0007 44.7294C82.1859 45.9739 81.3443 46.9946 80.4848 47.7915C79.6252 48.5883 78.7747 48.9823 77.942 48.9823C77.6197 48.9823 77.3511 48.8659 77.1362 48.6241C76.9213 48.3914 76.7512 48.1227 76.6169 47.8183C76.4647 47.4781 76.3394 47.0752 76.2319 46.6275C76.3215 46.6723 76.402 46.6992 76.4916 46.726C76.6617 46.7708 76.8139 46.7887 76.9392 46.7887C77.9957 46.7887 79.0164 46.4216 80.0013 45.6964C80.9862 44.9712 81.9173 44.0221 82.7858 42.8761C83.6542 41.7301 84.469 40.4587 85.2211 39.0709C85.9732 37.6832 86.6447 36.3312 87.2356 35.0061C87.8265 33.681 88.3279 32.4723 88.7487 31.38C89.1695 30.2877 89.4829 29.464 89.6977 28.9268C89.6082 28.6672 89.5724 28.4881 89.5724 28.3807C89.832 28.3807 90.1186 28.3896 90.423 28.4165C90.7363 28.4344 91.0318 28.5239 91.3094 28.6761C91.5869 28.8283 91.8286 29.0432 92.0167 29.3387C92.2136 29.6252 92.3032 30.046 92.3032 30.5832C92.3032 30.8607 92.3121 31.2726 92.339 31.8098C92.3569 32.347 92.3748 32.9468 92.3837 33.6004C92.3927 34.254 92.4106 34.9345 92.4285 35.6508C92.4464 36.3581 92.4643 37.0385 92.4733 37.6832C92.4822 38.3278 92.4912 38.9008 92.5091 39.3933C92.518 39.8857 92.527 40.2528 92.527 40.4856C92.5539 41.2376 92.6344 41.8912 92.7867 42.4553Z" fill="#6B77E5"/>
<path d="M62.6498 30.2784C62.4976 34.1283 60.9218 36.7158 59.1043 36.6442C57.2867 36.5726 55.9258 33.8687 56.078 30.0187C56.2302 26.1688 59.6683 22.7128 59.6683 22.7128C59.6683 22.7128 62.802 26.4284 62.6498 30.2784Z" fill="#37393F"/>
<path d="M66.9743 29.007C66.9564 29.1592 66.5087 32.7585 64.2704 34.8715C63.2049 35.8832 62.0499 36.6263 61.0293 36.9576C59.937 37.3157 59.0416 37.1993 58.5044 36.6263C57.4569 35.525 58.3522 33.0718 60.5726 30.9589C62.811 28.8459 66.4192 28.5952 66.5803 28.5862L67.028 28.5594L66.9743 29.007ZM59.0506 36.107C59.3729 36.4562 59.9996 36.501 60.7965 36.2413C61.7097 35.9459 62.7662 35.2654 63.7511 34.3253C65.3358 32.8301 65.9446 30.4127 66.1416 29.392C65.1209 29.5353 62.6677 30.0098 61.0919 31.505C59.6773 32.848 58.7999 34.3253 58.7999 35.3639C58.7999 35.6773 58.8894 35.928 59.0506 36.107Z" fill="#37393F"/>
<path d="M59.6684 36.6707C59.3282 36.9751 58.8626 37.1273 58.3254 37.1005C57.0809 37.0378 55.4782 36.0529 54.0547 34.4682C51.9954 32.1761 51.8342 28.559 51.8253 28.4068L51.8074 27.9501L52.255 28.0128C52.4072 28.0307 55.9886 28.5769 58.0478 30.86C59.4356 32.4 60.2235 33.9937 60.2235 35.2382C60.2414 35.838 60.0444 36.3394 59.6684 36.6707ZM54.6187 33.9578C55.899 35.3725 57.3316 36.2947 58.3702 36.3484C58.7104 36.3663 58.979 36.2857 59.167 36.1156C59.3729 35.9276 59.4804 35.6321 59.4804 35.2471C59.4804 34.1996 58.7373 32.7581 57.5017 31.3703C56.0423 29.7498 53.6428 29.0783 52.6311 28.8544C52.7475 29.8751 53.1593 32.3283 54.6187 33.9578Z" fill="#37393F"/>
<path d="M59.7132 28.9083C59.7132 28.7471 59.5879 28.6128 59.4178 28.6039C59.2476 28.5949 59.1133 28.7292 59.1044 28.8904L58.2986 48.9011C58.2986 48.9101 58.2986 48.9101 58.2986 48.9101C58.2986 49.0712 58.4239 49.2055 58.594 49.2145C58.7642 49.2234 58.8985 49.0891 58.9074 48.919L59.7132 28.9083C59.7132 28.9173 59.7132 28.9173 59.7132 28.9083Z" fill="#37393F"/>
<path d="M71.5585 34.2003C71.5585 34.1734 71.5585 34.1555 71.5495 34.1286C71.5137 33.9675 71.3436 33.869 71.1824 33.9048C71.0571 33.9317 58.7731 37.0295 58.3523 47.7198C58.3523 47.7287 58.3523 47.7288 58.3523 47.7288C58.3523 47.8899 58.4776 48.0242 58.6388 48.0332C58.8089 48.0421 58.9432 47.9078 58.9522 47.7377C59.364 37.4951 71.2003 34.5136 71.3167 34.4868C71.4689 34.4599 71.5585 34.3346 71.5585 34.2003Z" fill="#37393F"/>
<path d="M67.8784 40.6911C67.8784 40.6821 67.8784 40.6642 67.8784 40.6463C67.8515 40.4762 67.6993 40.3598 67.5382 40.3867C67.4486 40.3956 58.6027 41.6759 58.3252 48.5163V48.5252C58.3252 48.6864 58.4505 48.8207 58.6207 48.8297C58.7908 48.8386 58.9251 48.7043 58.934 48.5342C59.1847 42.2042 67.5382 40.9955 67.6188 40.9865C67.771 40.9686 67.8784 40.8433 67.8784 40.6911Z" fill="#37393F"/>
<path d="M58.9699 47.191C58.9699 36.9126 47.3933 32.991 47.2769 32.9463C47.1157 32.8926 46.9456 32.9821 46.8919 33.1433C46.8471 33.3044 46.9277 33.4745 47.0889 33.5282C47.2053 33.5641 58.7819 37.4856 58.3611 47.7282C58.3611 47.7372 58.3611 47.7372 58.3611 47.7372C58.3611 47.8983 58.4865 48.0326 58.6476 48.0416C58.8177 48.0506 58.952 47.9163 58.961 47.7461C58.9699 47.5581 58.9699 47.3701 58.9699 47.191Z" fill="#37393F"/>
<path d="M58.9341 48.2297C58.9341 41.6401 50.4822 39.7241 50.3926 39.7062C50.2315 39.6704 50.0703 39.7778 50.0345 39.939C49.9987 40.1091 50.1061 40.2613 50.2673 40.2971C50.3479 40.315 58.5491 42.1683 58.3253 48.5162V48.5252C58.3253 48.6864 58.4506 48.8207 58.6207 48.8296C58.7908 48.8386 58.9251 48.7043 58.9341 48.5342C58.9341 48.4357 58.9341 48.3282 58.9341 48.2297Z" fill="#37393F"/>
<path d="M73.4206 34.2898C73.3759 35.4806 72.3642 36.4118 71.1734 36.367C70.0094 36.3223 69.0962 35.3732 69.0962 34.1197C69.141 32.9289 70.1527 31.9978 71.3435 32.0426C72.5074 32.0873 73.4206 33.0364 73.4206 34.2093V34.2898ZM71.2002 35.5344C71.9344 35.5612 72.5522 34.9882 72.588 34.254L73.0088 34.2003H72.588C72.588 33.4841 72.0239 32.9021 71.3077 32.8663C70.5735 32.8394 69.9557 33.4124 69.9199 34.2003C69.9199 34.9166 70.484 35.5075 71.2002 35.5344Z" fill="#37393F"/>
<path d="M49.3451 33.3227C49.3183 33.9046 49.0765 34.4329 48.6468 34.8268C48.226 35.2208 47.6709 35.4177 47.0889 35.3998C45.925 35.3551 45.0117 34.406 45.0117 33.1525C45.0386 32.5706 45.2803 32.0423 45.7101 31.6484C46.1309 31.2544 46.686 31.0575 47.268 31.0754C48.4319 31.1201 49.3451 32.0692 49.3451 33.2421V33.3227ZM47.1247 34.5672C47.4828 34.5851 47.8231 34.4597 48.0827 34.218C48.3424 33.9763 48.4946 33.645 48.5125 33.2868L48.9333 33.2331H48.5214C48.5214 32.5169 47.9574 31.9349 47.2411 31.8991C46.883 31.8812 46.5427 32.0065 46.2831 32.2483C46.0234 32.49 45.8712 32.8213 45.8533 33.2331C45.8444 33.9494 46.4084 34.5403 47.1247 34.5672Z" fill="#37393F"/>
<path d="M69.3201 40.7628C69.2843 41.7297 68.4695 42.4818 67.5026 42.4371C66.5356 42.4012 65.7835 41.5865 65.8283 40.6195C65.8641 39.6526 66.6789 38.9005 67.6458 38.9453C68.6128 38.9811 69.3559 39.7958 69.3201 40.7628Z" fill="#37393F"/>
<path d="M52.076 40.0734C52.0402 41.0404 51.2254 41.7924 50.2584 41.7477C49.2915 41.7119 48.5394 40.8971 48.5842 39.9301C48.62 38.9632 49.4347 38.2111 50.4017 38.2559C51.3687 38.2917 52.1118 39.1064 52.076 40.0734Z" fill="#37393F"/>
</svg>
